<svg id="svg" version="1.1" width="300" height="136.5" viewBox="0 0 400 136.5" xmlns="http://www.w3.org/2000/svg" xmlns:xlink="http://www.w3.org/1999/xlink" ><g id="svgg"><path id="path0" d="M238.888 60.250 C 238.889 60.892,238.919 61.134,238.955 60.788 C 238.991 60.442,238.990 59.917,238.954 59.621 C 238.917 59.325,238.887 59.608,238.888 60.250 " stroke="none" fill="#000000" fill-rule="evenodd"></path><path id="path1" d="" stroke="none" fill="#003399" fill-rule="evenodd"></path><path id="path2" d="" stroke="none" fill="#0000ff" fill-rule="evenodd"></path><path id="path3" d="M239.115 58.458 C 239.017 58.629,238.957 61.433,239.054 61.331 C 239.138 61.243,239.313 58.333,239.235 58.333 C 239.208 58.333,239.154 58.390,239.115 58.458 M339.871 73.792 C 339.850 78.856,339.890 83.000,339.958 83.000 C 340.072 83.000,340.070 76.200,339.954 67.833 C 339.929 66.046,339.892 68.727,339.871 73.792 " stroke="none" fill="#0055ff" fill-rule="evenodd"></path><path id="path4" d="M66.833 26.096 C 66.833 26.251,66.947 26.336,67.111 26.304 C 67.529 26.223,67.587 25.833,67.181 25.833 C 66.976 25.833,66.833 25.941,66.833 26.096 M65.833 26.583 C 65.833 26.740,65.675 26.833,65.411 26.833 C 65.179 26.833,64.946 26.946,64.894 27.083 C 64.841 27.221,64.665 27.333,64.503 27.333 C 64.340 27.333,64.114 27.446,64.000 27.583 C 63.886 27.721,63.689 27.833,63.563 27.833 C 63.437 27.833,63.333 27.946,63.333 28.083 C 63.333 28.250,63.167 28.333,62.833 28.333 C 62.500 28.333,62.333 28.417,62.333 28.583 C 62.333 28.750,62.167 28.833,61.833 28.833 C 61.500 28.833,61.333 28.917,61.333 29.083 C 61.333 29.250,61.167 29.333,60.833 29.333 C 60.500 29.333,60.333 29.417,60.333 29.583 C 60.333 29.721,60.193 29.833,60.020 29.833 C 59.848 29.833,59.614 29.946,59.500 30.083 C 59.386 30.221,59.189 30.333,59.063 30.333 C 58.937 30.333,58.833 30.446,58.833 30.583 C 58.833 30.750,58.667 30.833,58.333 30.833 C 58.000 30.833,57.833 30.917,57.833 31.083 C 57.833 31.250,57.667 31.333,57.333 31.333 C 57.000 31.333,56.833 31.417,56.833 31.583 C 56.833 31.750,56.667 31.833,56.333 31.833 C 56.017 31.833,55.833 31.919,55.833 32.065 C 55.833 32.193,55.646 32.344,55.417 32.402 C 55.188 32.459,55.000 32.580,55.000 32.670 C 55.000 32.760,54.850 32.833,54.667 32.833 C 54.481 32.833,54.333 32.944,54.333 33.083 C 54.333 33.250,54.167 33.333,53.833 33.333 C 53.500 33.333,53.333 33.417,53.333 33.583 C 53.333 33.750,53.167 33.833,52.833 33.833 C 52.500 33.833,52.333 33.917,52.333 34.083 C 52.333 34.240,52.175 34.333,51.911 34.333 C 51.679 34.333,51.446 34.446,51.394 34.583 C 51.341 34.721,51.193 34.833,51.066 34.833 C 50.938 34.833,50.833 34.946,50.833 35.083 C 50.833 35.250,50.667 35.333,50.333 35.333 C 50.000 35.333,49.833 35.417,49.833 35.583 C 49.833 35.750,49.667 35.833,49.333 35.833 C 49.000 35.833,48.833 35.917,48.833 36.083 C 48.833 36.250,48.667 36.333,48.333 36.333 C 48.000 36.333,47.833 36.417,47.833 36.583 C 47.833 36.721,47.693 36.833,47.520 36.833 C 47.348 36.833,47.114 36.946,47.000 37.083 C 46.886 37.221,46.689 37.333,46.563 37.333 C 46.437 37.333,46.333 37.446,46.333 37.583 C 46.333 37.750,46.167 37.833,45.833 37.833 C 45.500 37.833,45.333 37.917,45.333 38.083 C 45.333 38.250,45.167 38.333,44.833 38.333 C 44.500 38.333,44.333 38.417,44.333 38.583 C 44.333 38.750,44.167 38.833,43.833 38.833 C 43.545 38.833,43.333 38.922,43.332 39.042 C 43.331 39.156,42.993 39.398,42.582 39.579 C 42.170 39.760,41.833 40.004,41.833 40.121 C 41.833 40.246,41.628 40.333,41.333 40.333 C 41.000 40.333,40.833 40.417,40.833 40.583 C 40.833 40.750,40.667 40.833,40.333 40.833 C 40.000 40.833,39.833 40.917,39.833 41.083 C 39.833 41.240,39.675 41.333,39.411 41.333 C 39.179 41.333,38.949 41.439,38.899 41.568 C 38.850 41.698,38.627 41.849,38.405 41.905 C 38.182 41.961,38.000 42.080,38.000 42.170 C 38.000 42.260,37.850 42.333,37.667 42.333 C 37.481 42.333,37.333 42.444,37.333 42.583 C 37.333 42.750,37.167 42.833,36.833 42.833 C 36.500 42.833,36.333 42.917,36.333 43.083 C 36.333 43.250,36.167 43.333,35.833 43.333 C 35.500 43.333,35.333 43.417,35.333 43.583 C 35.333 43.740,35.175 43.833,34.911 43.833 C 34.679 43.833,34.446 43.946,34.394 44.083 C 34.341 44.221,34.193 44.333,34.066 44.333 C 33.938 44.333,33.833 44.446,33.833 44.583 C 33.833 44.750,33.667 44.833,33.333 44.833 C 33.000 44.833,32.833 44.917,32.833 45.083 C 32.833 45.250,32.667 45.333,32.333 45.333 C 32.000 45.333,31.833 45.417,31.833 45.583 C 31.833 45.750,31.667 45.833,31.333 45.833 C 31.000 45.833,30.833 45.917,30.833 46.083 C 30.833 46.221,30.721 46.333,30.583 46.333 C 30.446 46.333,30.333 46.446,30.333 46.583 C 30.333 46.750,30.167 46.833,29.833 46.833 C 29.500 46.833,29.333 46.917,29.333 47.083 C 29.333 47.221,29.221 47.333,29.083 47.333 C 28.946 47.333,28.833 47.446,28.833 47.583 C 28.833 47.721,28.721 47.833,28.583 47.833 C 28.446 47.833,28.333 47.946,28.333 48.083 C 28.333 48.221,28.221 48.333,28.083 48.333 C 27.946 48.333,27.833 48.446,27.833 48.583 C 27.833 48.721,27.721 48.833,27.583 48.833 C 27.446 48.833,27.333 48.946,27.333 49.083 C 27.333 49.221,27.221 49.333,27.083 49.333 C 26.946 49.333,26.833 49.438,26.833 49.566 C 26.833 49.693,26.721 49.841,26.583 49.894 C 26.446 49.946,26.333 50.179,26.333 50.411 C 26.333 50.675,26.240 50.833,26.083 50.833 C 25.917 50.833,25.833 51.000,25.833 51.333 C 25.833 51.667,25.750 51.833,25.583 51.833 C 25.443 51.833,25.333 51.982,25.333 52.172 C 25.333 52.358,25.221 52.554,25.083 52.606 C 24.713 52.748,24.713 56.964,25.083 57.106 C 25.221 57.159,25.333 57.307,25.333 57.434 C 25.333 57.562,25.446 57.667,25.583 57.667 C 25.750 57.667,25.833 57.833,25.833 58.167 C 25.833 58.500,25.917 58.667,26.083 58.667 C 26.240 58.667,26.333 58.825,26.333 59.089 C 26.333 59.321,26.446 59.554,26.583 59.606 C 26.721 59.659,26.833 59.807,26.833 59.934 C 26.833 60.062,26.946 60.167,27.083 60.167 C 27.221 60.167,27.333 60.279,27.333 60.417 C 27.333 60.554,27.446 60.667,27.583 60.667 C 27.721 60.667,27.833 60.779,27.833 60.917 C 27.833 61.054,27.946 61.167,28.083 61.167 C 28.221 61.167,28.333 61.279,28.333 61.417 C 28.333 61.554,28.446 61.667,28.583 61.667 C 28.721 61.667,28.833 61.779,28.833 61.917 C 28.833 62.054,28.946 62.167,29.083 62.167 C 29.221 62.167,29.333 62.279,29.333 62.417 C 29.333 62.583,29.500 62.667,29.833 62.667 C 30.167 62.667,30.333 62.750,30.333 62.917 C 30.333 63.054,30.446 63.167,30.583 63.167 C 30.721 63.167,30.833 63.279,30.833 63.417 C 30.833 63.583,31.000 63.667,31.333 63.667 C 31.667 63.667,31.833 63.750,31.833 63.917 C 31.833 64.083,32.000 64.167,32.333 64.167 C 32.667 64.167,32.833 64.250,32.833 64.417 C 32.833 64.554,32.948 64.667,33.089 64.667 C 33.229 64.667,33.387 64.779,33.440 64.917 C 33.492 65.054,33.715 65.167,33.934 65.167 C 34.178 65.167,34.333 65.264,34.333 65.417 C 34.333 65.583,34.500 65.667,34.833 65.667 C 35.167 65.667,35.333 65.750,35.333 65.917 C 35.333 66.083,35.500 66.167,35.833 66.167 C 36.167 66.167,36.333 66.250,36.333 66.417 C 36.333 66.583,36.500 66.667,36.833 66.667 C 37.167 66.667,37.333 66.750,37.333 66.917 C 37.333 67.083,37.500 67.167,37.833 67.167 C 38.167 67.167,38.333 67.250,38.333 67.417 C 38.333 67.554,38.438 67.667,38.566 67.667 C 38.693 67.667,38.841 67.779,38.894 67.917 C 38.946 68.054,39.179 68.167,39.411 68.167 C 39.675 68.167,39.833 68.260,39.833 68.417 C 39.833 68.583,40.000 68.667,40.333 68.667 C 40.667 68.667,40.833 68.750,40.833 68.917 C 40.833 69.083,41.000 69.167,41.333 69.167 C 41.667 69.167,41.833 69.250,41.833 69.417 C 41.833 69.583,42.000 69.667,42.333 69.667 C 42.667 69.667,42.833 69.750,42.833 69.917 C 42.833 70.054,42.937 70.167,43.063 70.167 C 43.189 70.167,43.386 70.279,43.500 70.417 C 43.614 70.554,43.848 70.667,44.020 70.667 C 44.193 70.667,44.333 70.779,44.333 70.917 C 44.333 71.083,44.500 71.167,44.833 71.167 C 45.167 71.167,45.333 71.250,45.333 71.417 C 45.333 71.583,45.500 71.667,45.833 71.667 C 46.167 71.667,46.333 71.750,46.333 71.917 C 46.333 72.083,46.500 72.167,46.833 72.167 C 47.167 72.167,47.333 72.250,47.333 72.417 C 47.333 72.583,47.500 72.667,47.833 72.667 C 48.167 72.667,48.333 72.750,48.333 72.917 C 48.333 73.054,48.438 73.167,48.566 73.167 C 48.693 73.167,48.841 73.279,48.894 73.417 C 48.946 73.554,49.179 73.667,49.411 73.667 C 49.675 73.667,49.833 73.760,49.833 73.917 C 49.833 74.083,50.000 74.167,50.333 74.167 C 50.667 74.167,50.833 74.250,50.833 74.417 C 50.833 74.583,51.000 74.667,51.333 74.667 C 51.667 74.667,51.833 74.750,51.833 74.917 C 51.833 75.083,52.000 75.167,52.333 75.167 C 52.667 75.167,52.833 75.250,52.833 75.417 C 52.833 75.556,52.981 75.667,53.167 75.667 C 53.350 75.667,53.500 75.740,53.500 75.830 C 53.500 75.920,53.688 76.041,53.917 76.098 C 54.146 76.156,54.333 76.307,54.333 76.435 C 54.333 76.581,54.517 76.667,54.833 76.667 C 55.167 76.667,55.333 76.750,55.333 76.917 C 55.333 77.083,55.500 77.167,55.833 77.167 C 56.167 77.167,56.333 77.250,56.333 77.417 C 56.333 77.583,56.500 77.667,56.833 77.667 C 57.167 77.667,57.333 77.750,57.333 77.917 C 57.333 78.083,57.500 78.167,57.833 78.167 C 58.167 78.167,58.333 78.250,58.333 78.417 C 58.333 78.554,58.438 78.667,58.566 78.667 C 58.693 78.667,58.841 78.779,58.894 78.917 C 58.963 79.097,59.246 79.167,59.911 79.167 C 60.620 79.167,60.833 79.225,60.833 79.417 C 60.833 79.597,61.019 79.667,61.500 79.667 C 61.981 79.667,62.167 79.597,62.167 79.417 C 62.167 79.231,62.361 79.167,62.917 79.167 C 63.472 79.167,63.667 79.102,63.667 78.917 C 63.667 78.779,63.762 78.667,63.880 78.667 C 64.256 78.667,64.667 78.013,64.667 77.415 C 64.667 77.095,64.592 76.833,64.500 76.833 C 64.408 76.833,64.333 76.721,64.333 76.583 C 64.333 76.446,64.183 76.183,64.000 76.000 C 63.817 75.817,63.667 75.592,63.667 75.500 C 63.667 75.408,63.554 75.333,63.417 75.333 C 63.279 75.333,63.167 75.221,63.167 75.083 C 63.167 74.946,63.054 74.833,62.917 74.833 C 62.779 74.833,62.667 74.758,62.667 74.667 C 62.667 74.575,62.517 74.350,62.333 74.167 C 62.150 73.983,61.925 73.833,61.833 73.833 C 61.742 73.833,61.667 73.750,61.667 73.649 C 61.667 73.547,61.254 73.058,60.750 72.562 C 60.246 72.066,59.833 71.586,59.833 71.496 C 59.833 71.407,59.729 71.333,59.601 71.333 C 59.474 71.333,59.327 71.165,59.275 70.958 C 59.223 70.752,58.878 70.258,58.507 69.861 C 58.137 69.464,57.833 69.070,57.833 68.986 C 57.833 68.902,57.729 68.833,57.601 68.833 C 57.474 68.833,57.319 68.631,57.257 68.383 C 57.194 68.136,56.973 67.775,56.765 67.582 C 56.556 67.389,56.335 67.029,56.273 66.782 C 56.211 66.535,56.087 66.333,55.997 66.333 C 55.907 66.333,55.833 66.221,55.833 66.083 C 55.833 65.946,55.688 65.833,55.510 65.833 C 55.283 65.833,55.204 65.740,55.246 65.521 C 55.286 65.311,55.215 65.215,55.028 65.229 C 54.842 65.243,54.733 65.098,54.697 64.792 C 54.667 64.529,54.542 64.333,54.406 64.333 C 54.274 64.333,54.167 64.223,54.167 64.087 C 54.167 63.952,53.954 63.445,53.694 62.962 C 51.187 58.300,50.627 50.510,52.372 44.583 C 53.572 40.512,56.102 36.332,59.549 32.726 C 61.082 31.122,64.024 28.555,65.346 27.667 C 65.551 27.529,65.836 27.285,65.980 27.125 C 66.123 26.965,66.337 26.833,66.454 26.833 C 66.571 26.833,66.667 26.721,66.667 26.583 C 66.667 26.428,66.509 26.333,66.250 26.333 C 65.991 26.333,65.833 26.428,65.833 26.583 M131.607 48.083 C 131.440 48.251,131.022 48.333,130.345 48.333 C 129.557 48.333,129.333 48.389,129.333 48.583 C 129.333 48.769,129.139 48.833,128.583 48.833 C 128.028 48.833,127.833 48.898,127.833 49.083 C 127.833 49.250,127.667 49.333,127.333 49.333 C 127.000 49.333,126.833 49.417,126.833 49.583 C 126.833 49.721,126.693 49.833,126.520 49.833 C 126.348 49.833,126.114 49.946,126.000 50.083 C 125.886 50.221,125.689 50.333,125.563 50.333 C 125.437 50.333,125.333 50.446,125.333 50.583 C 125.333 50.721,125.221 50.833,125.083 50.833 C 124.946 50.833,124.833 50.946,124.833 51.083 C 124.833 51.221,124.721 51.333,124.583 51.333 C 124.446 51.333,124.333 51.446,124.333 51.583 C 124.333 51.721,124.221 51.833,124.083 51.833 C 123.946 51.833,123.833 51.938,123.833 52.066 C 123.833 52.193,123.721 52.341,123.583 52.394 C 123.446 52.446,123.333 52.679,123.333 52.911 C 123.333 53.175,123.240 53.333,123.083 53.333 C 122.919 53.333,122.833 53.498,122.833 53.813 C 122.833 54.077,122.721 54.386,122.583 54.500 C 122.378 54.670,122.333 55.241,122.333 57.675 C 122.333 60.091,122.380 60.689,122.583 60.893 C 122.721 61.030,122.833 61.373,122.833 61.655 C 122.833 61.999,122.915 62.167,123.083 62.167 C 123.221 62.167,123.333 62.279,123.333 62.417 C 123.333 62.554,123.446 62.667,123.583 62.667 C 123.740 62.667,123.833 62.825,123.833 63.089 C 123.833 63.321,123.946 63.554,124.083 63.606 C 124.221 63.659,124.333 63.807,124.333 63.934 C 124.333 64.062,124.438 64.167,124.566 64.167 C 124.693 64.167,124.841 64.279,124.894 64.417 C 124.946 64.554,125.179 64.667,125.411 64.667 C 125.675 64.667,125.833 64.760,125.833 64.917 C 125.833 65.054,125.946 65.167,126.083 65.167 C 126.221 65.167,126.333 65.279,126.333 65.417 C 126.333 65.583,126.500 65.667,126.833 65.667 C 127.167 65.667,127.333 65.750,127.333 65.917 C 127.333 66.083,127.500 66.167,127.833 66.167 C 128.167 66.167,128.333 66.250,128.333 66.417 C 128.333 66.581,128.498 66.667,128.816 66.667 C 129.090 66.667,129.339 66.774,129.394 66.917 C 129.457 67.082,129.718 67.167,130.161 67.167 C 130.648 67.167,130.833 67.236,130.833 67.417 C 130.833 67.611,131.054 67.667,131.816 67.667 C 132.535 67.667,132.823 67.734,132.894 67.917 C 132.963 68.097,133.246 68.167,133.911 68.167 C 134.620 68.167,134.833 68.225,134.833 68.417 C 134.833 68.602,135.028 68.667,135.583 68.667 C 136.139 68.667,136.333 68.731,136.333 68.917 C 136.333 69.102,136.528 69.167,137.083 69.167 C 137.639 69.167,137.833 69.231,137.833 69.417 C 137.833 69.581,137.998 69.667,138.316 69.667 C 138.590 69.667,138.839 69.774,138.894 69.917 C 138.946 70.054,139.179 70.167,139.411 70.167 C 139.675 70.167,139.833 70.260,139.833 70.417 C 139.833 70.583,140.000 70.667,140.333 70.667 C 140.667 70.667,140.833 70.750,140.833 70.917 C 140.833 71.054,140.946 71.167,141.083 71.167 C 141.221 71.167,141.333 71.279,141.333 71.417 C 141.333 71.554,141.446 71.667,141.583 71.667 C 141.764 71.667,141.833 71.852,141.833 72.339 C 141.833 72.782,141.918 73.043,142.083 73.106 C 142.257 73.173,142.333 73.445,142.333 74.000 C 142.333 74.555,142.257 74.827,142.083 74.894 C 141.918 74.957,141.833 75.218,141.833 75.661 C 141.833 76.148,141.764 76.333,141.583 76.333 C 141.446 76.333,141.333 76.446,141.333 76.583 C 141.333 76.721,141.221 76.833,141.083 76.833 C 140.946 76.833,140.833 76.946,140.833 77.083 C 140.833 77.221,140.721 77.333,140.583 77.333 C 140.446 77.333,140.331 77.427,140.329 77.542 C 140.324 77.791,139.290 78.333,138.821 78.333 C 138.639 78.333,138.446 78.446,138.394 78.583 C 138.331 78.747,138.071 78.833,137.644 78.833 C 137.216 78.833,136.956 78.920,136.894 79.083 C 136.751 79.455,131.749 79.455,131.606 79.083 C 131.544 78.920,131.284 78.833,130.856 78.833 C 130.429 78.833,130.169 78.747,130.106 78.583 C 130.054 78.446,129.821 78.333,129.589 78.333 C 129.325 78.333,129.167 78.240,129.167 78.083 C 129.167 77.937,129.011 77.830,128.792 77.826 C 128.585 77.822,128.233 77.597,128.008 77.326 C 127.783 77.055,127.502 76.833,127.383 76.833 C 127.264 76.833,127.167 76.721,127.167 76.583 C 127.167 76.446,127.092 76.333,127.000 76.333 C 126.908 76.333,126.833 76.221,126.833 76.083 C 126.833 75.946,126.767 75.833,126.687 75.833 C 126.606 75.833,126.447 75.608,126.333 75.333 C 126.219 75.058,126.077 74.833,126.016 74.833 C 125.956 74.833,125.821 74.608,125.718 74.333 C 125.506 73.772,124.580 73.597,124.394 74.083 C 124.341 74.221,124.193 74.333,124.066 74.333 C 123.938 74.333,123.833 74.446,123.833 74.583 C 123.833 74.750,123.667 74.833,123.333 74.833 C 123.000 74.833,122.833 74.917,122.833 75.083 C 122.833 75.250,122.667 75.333,122.333 75.333 C 122.000 75.333,121.833 75.417,121.833 75.583 C 121.833 75.750,121.667 75.833,121.333 75.833 C 120.861 75.833,120.833 75.870,120.833 76.500 C 120.833 76.981,120.903 77.167,121.083 77.167 C 121.221 77.167,121.333 77.307,121.333 77.480 C 121.333 77.652,121.446 77.886,121.583 78.000 C 121.721 78.114,121.833 78.311,121.833 78.437 C 121.833 78.563,121.946 78.667,122.083 78.667 C 122.221 78.667,122.333 78.779,122.333 78.917 C 122.333 79.054,122.446 79.167,122.583 79.167 C 122.721 79.167,122.833 79.279,122.833 79.417 C 122.833 79.554,122.946 79.667,123.083 79.667 C 123.221 79.667,123.333 79.779,123.333 79.917 C 123.333 80.054,123.446 80.167,123.583 80.167 C 123.721 80.167,123.833 80.279,123.833 80.417 C 123.833 80.554,123.946 80.667,124.083 80.667 C 124.221 80.667,124.333 80.779,124.333 80.917 C 124.333 81.054,124.446 81.167,124.583 81.167 C 124.721 81.167,124.833 81.279,124.833 81.417 C 124.833 81.554,124.946 81.667,125.083 81.667 C 125.221 81.667,125.333 81.779,125.333 81.917 C 125.333 82.083,125.500 82.167,125.833 82.167 C 126.167 82.167,126.333 82.250,126.333 82.417 C 126.333 82.554,126.478 82.667,126.655 82.667 C 126.832 82.667,127.089 82.779,127.226 82.917 C 127.364 83.054,127.669 83.167,127.905 83.167 C 128.175 83.167,128.333 83.259,128.333 83.417 C 128.333 83.601,128.526 83.667,129.066 83.667 C 129.563 83.667,129.828 83.747,129.894 83.917 C 129.975 84.129,130.589 84.167,134.000 84.167 C 137.411 84.167,138.025 84.129,138.106 83.917 C 138.172 83.746,138.439 83.667,138.946 83.667 C 139.386 83.667,139.793 83.564,139.940 83.417 C 140.078 83.279,140.402 83.167,140.661 83.167 C 140.925 83.167,141.173 83.057,141.227 82.917 C 141.280 82.779,141.515 82.667,141.750 82.667 C 141.985 82.667,142.220 82.554,142.273 82.417 C 142.326 82.279,142.513 82.167,142.690 82.167 C 142.867 82.167,143.231 81.942,143.500 81.667 C 143.769 81.392,144.066 81.167,144.161 81.167 C 144.256 81.167,144.333 81.072,144.333 80.956 C 144.333 80.840,144.496 80.672,144.695 80.581 C 144.893 80.491,145.137 80.273,145.236 80.098 C 145.336 79.923,145.687 79.511,146.018 79.182 C 146.348 78.853,146.677 78.396,146.749 78.167 C 146.820 77.938,146.981 77.602,147.106 77.421 C 147.231 77.240,147.333 76.776,147.333 76.389 C 147.333 76.003,147.403 75.643,147.488 75.591 C 147.767 75.418,147.877 73.740,147.666 72.892 C 147.555 72.447,147.427 71.722,147.382 71.280 C 147.334 70.808,147.203 70.440,147.066 70.387 C 146.938 70.338,146.833 70.127,146.833 69.919 C 146.833 69.711,146.721 69.447,146.583 69.333 C 146.446 69.219,146.333 69.027,146.333 68.907 C 146.333 68.541,144.054 66.333,143.677 66.333 C 143.483 66.333,143.333 66.225,143.333 66.083 C 143.333 65.944,143.185 65.833,143.000 65.833 C 142.815 65.833,142.667 65.722,142.667 65.583 C 142.667 65.419,142.502 65.333,142.184 65.333 C 141.910 65.333,141.661 65.226,141.606 65.083 C 141.546 64.926,141.291 64.833,140.917 64.833 C 140.543 64.833,140.287 64.741,140.227 64.583 C 140.162 64.414,139.896 64.333,139.399 64.333 C 138.859 64.333,138.667 64.268,138.667 64.083 C 138.667 63.889,138.444 63.833,137.667 63.833 C 136.889 63.833,136.667 63.778,136.667 63.583 C 136.667 63.391,136.453 63.333,135.745 63.333 C 135.079 63.333,134.796 63.264,134.727 63.083 C 134.662 62.914,134.396 62.833,133.899 62.833 C 133.359 62.833,133.167 62.768,133.167 62.583 C 133.167 62.398,132.972 62.333,132.417 62.333 C 131.861 62.333,131.667 62.269,131.667 62.083 C 131.667 61.919,131.502 61.833,131.184 61.833 C 130.910 61.833,130.661 61.726,130.606 61.583 C 130.554 61.446,130.366 61.333,130.190 61.333 C 130.013 61.333,129.826 61.221,129.773 61.083 C 129.720 60.946,129.562 60.833,129.422 60.833 C 129.282 60.833,129.167 60.721,129.167 60.583 C 129.167 60.446,129.054 60.333,128.917 60.333 C 128.779 60.333,128.667 60.248,128.667 60.144 C 128.667 60.040,128.479 59.781,128.250 59.569 C 127.819 59.169,127.586 56.167,127.987 56.167 C 128.071 56.167,128.190 55.942,128.250 55.667 C 128.310 55.392,128.466 55.167,128.597 55.167 C 128.727 55.167,128.833 55.054,128.833 54.917 C 128.833 54.779,128.946 54.667,129.083 54.667 C 129.221 54.667,129.333 54.554,129.333 54.417 C 129.333 54.261,129.491 54.167,129.750 54.167 C 130.009 54.167,130.167 54.072,130.167 53.917 C 130.167 53.750,130.333 53.667,130.667 53.667 C 131.000 53.667,131.167 53.583,131.167 53.417 C 131.167 53.224,131.381 53.167,132.095 53.167 C 132.698 53.167,133.111 53.079,133.274 52.917 C 133.448 52.743,133.874 52.667,134.679 52.667 C 135.594 52.667,135.833 52.718,135.833 52.917 C 135.833 53.111,136.056 53.167,136.839 53.167 C 137.578 53.167,137.869 53.233,137.940 53.417 C 138.002 53.580,138.262 53.667,138.684 53.667 C 139.150 53.667,139.333 53.737,139.333 53.917 C 139.333 54.083,139.500 54.167,139.833 54.167 C 140.167 54.167,140.333 54.250,140.333 54.417 C 140.333 54.554,140.446 54.667,140.583 54.667 C 140.721 54.667,140.833 54.779,140.833 54.917 C 140.833 55.054,140.927 55.170,141.042 55.174 C 141.156 55.178,141.434 55.403,141.659 55.674 C 142.003 56.089,142.188 56.167,142.833 56.167 C 143.478 56.167,143.663 56.089,144.008 55.674 C 144.233 55.403,144.510 55.178,144.625 55.174 C 144.740 55.170,144.833 55.092,144.833 55.000 C 144.833 54.753,145.465 54.167,145.731 54.167 C 146.045 54.167,146.491 53.452,146.418 53.065 C 146.385 52.892,146.353 52.656,146.346 52.542 C 146.339 52.427,146.260 52.333,146.171 52.333 C 146.082 52.333,145.671 51.996,145.259 51.583 C 144.846 51.171,144.357 50.833,144.171 50.833 C 143.982 50.833,143.833 50.723,143.833 50.583 C 143.833 50.444,143.685 50.333,143.500 50.333 C 143.315 50.333,143.167 50.222,143.167 50.083 C 143.167 49.931,143.011 49.833,142.768 49.833 C 142.548 49.833,142.326 49.721,142.273 49.583 C 142.220 49.446,141.985 49.333,141.750 49.333 C 141.515 49.333,141.280 49.221,141.227 49.083 C 141.169 48.931,140.916 48.833,140.583 48.833 C 140.250 48.833,139.998 48.735,139.940 48.583 C 139.872 48.408,139.599 48.333,139.026 48.333 C 138.502 48.333,138.133 48.243,138.000 48.083 C 137.830 47.878,137.259 47.833,134.825 47.833 C 132.409 47.833,131.811 47.880,131.607 48.083 M257.533 48.533 C 257.398 48.669,257.333 49.448,257.333 50.950 L 257.333 53.167 263.083 53.167 L 268.833 53.167 268.833 68.421 L 268.833 83.675 271.542 83.629 L 274.250 83.583 274.293 68.375 L 274.335 53.167 279.481 53.167 L 284.628 53.167 284.728 52.792 C 284.784 52.585,284.830 52.280,284.831 52.113 C 284.832 51.946,284.946 51.697,285.083 51.560 C 285.221 51.422,285.333 51.052,285.333 50.738 C 285.333 50.424,285.403 50.167,285.489 50.167 C 285.737 50.167,285.874 49.521,285.758 48.902 L 285.652 48.333 271.692 48.333 C 261.058 48.333,257.686 48.381,257.533 48.533 M245.500 51.583 C 245.373 51.736,245.008 51.833,244.563 51.833 C 244.026 51.833,243.833 51.899,243.833 52.083 C 243.833 52.271,243.633 52.333,243.033 52.333 C 241.853 52.333,241.833 52.382,241.833 55.283 L 241.833 57.833 240.583 57.833 C 239.698 57.833,239.331 57.894,239.327 58.042 C 239.323 58.156,239.279 58.732,239.228 59.322 C 239.177 59.912,239.186 60.793,239.247 61.280 L 239.357 62.167 240.595 62.167 L 241.833 62.167 241.833 70.667 C 241.833 78.111,241.864 79.167,242.083 79.167 C 242.269 79.167,242.333 79.361,242.333 79.917 C 242.333 80.472,242.398 80.667,242.583 80.667 C 242.750 80.667,242.833 80.833,242.833 81.167 C 242.833 81.500,242.917 81.667,243.083 81.667 C 243.221 81.667,243.333 81.779,243.333 81.917 C 243.333 82.054,243.446 82.167,243.583 82.167 C 243.721 82.167,243.833 82.279,243.833 82.417 C 243.833 82.554,243.946 82.667,244.083 82.667 C 244.221 82.667,244.333 82.779,244.333 82.917 C 244.333 83.054,244.446 83.167,244.583 83.167 C 244.721 83.167,244.833 83.279,244.833 83.417 C 244.833 83.581,244.998 83.667,245.313 83.667 C 245.577 83.667,245.886 83.779,246.000 83.917 C 246.167 84.118,246.684 84.167,248.669 84.167 C 250.704 84.167,251.148 84.123,251.227 83.917 C 251.280 83.779,251.513 83.667,251.745 83.667 C 252.208 83.667,252.194 83.723,252.194 81.750 C 252.194 81.154,252.188 80.479,252.181 80.250 L 252.167 79.833 250.434 79.833 C 249.049 79.833,248.683 79.783,248.606 79.583 C 248.554 79.446,248.396 79.333,248.255 79.333 C 247.337 79.333,247.340 79.366,247.330 70.461 L 247.320 62.250 248.976 62.203 C 250.749 62.152,250.824 62.108,250.831 61.113 C 250.832 60.946,250.946 60.697,251.083 60.560 C 251.221 60.422,251.333 60.052,251.333 59.738 C 251.333 59.424,251.400 59.167,251.482 59.167 C 251.683 59.167,251.857 58.423,251.732 58.097 C 251.647 57.876,251.287 57.833,249.482 57.833 L 247.333 57.833 247.331 54.958 C 247.328 51.331,247.329 51.333,246.418 51.333 C 245.990 51.333,245.625 51.433,245.500 51.583 M66.833 57.583 C 66.833 57.750,66.667 57.833,66.333 57.833 C 66.000 57.833,65.833 57.917,65.833 58.083 C 65.833 58.221,65.721 58.333,65.583 58.333 C 65.387 58.333,65.333 58.565,65.333 59.422 C 65.333 60.236,65.396 60.535,65.583 60.606 C 65.721 60.659,65.833 60.807,65.833 60.934 C 65.833 61.062,65.946 61.167,66.083 61.167 C 66.221 61.167,66.333 61.279,66.333 61.417 C 66.333 61.554,66.446 61.667,66.583 61.667 C 66.721 61.667,66.833 61.779,66.833 61.917 C 66.833 62.054,66.946 62.167,67.083 62.167 C 67.221 62.167,67.333 62.279,67.333 62.417 C 67.333 62.554,67.446 62.667,67.583 62.667 C 67.721 62.667,67.833 62.779,67.833 62.917 C 67.833 63.054,67.946 63.167,68.083 63.167 C 68.221 63.167,68.333 63.279,68.333 63.417 C 68.333 63.554,68.446 63.667,68.583 63.667 C 68.721 63.667,68.833 63.779,68.833 63.917 C 68.833 64.054,68.946 64.167,69.083 64.167 C 69.221 64.167,69.333 64.279,69.333 64.417 C 69.333 64.554,69.446 64.667,69.583 64.667 C 69.721 64.667,69.833 64.807,69.833 64.980 C 69.833 65.152,69.946 65.386,70.083 65.500 C 70.221 65.614,70.333 65.811,70.333 65.937 C 70.333 66.063,70.446 66.167,70.583 66.167 C 70.721 66.167,70.833 66.279,70.833 66.417 C 70.833 66.554,70.946 66.667,71.083 66.667 C 71.221 66.667,71.333 66.779,71.333 66.917 C 71.333 67.054,71.446 67.167,71.583 67.167 C 71.721 67.167,71.833 67.271,71.833 67.399 C 71.833 67.527,71.946 67.674,72.083 67.727 C 72.221 67.780,72.333 68.013,72.333 68.245 C 72.333 68.509,72.427 68.667,72.583 68.667 C 72.721 68.667,72.833 68.779,72.833 68.917 C 72.833 69.054,72.946 69.167,73.083 69.167 C 73.250 69.167,73.333 69.333,73.333 69.667 C 73.333 70.000,73.417 70.167,73.583 70.167 C 73.732 70.167,73.833 70.320,73.833 70.546 C 73.833 71.038,74.391 71.542,74.650 71.284 C 74.783 71.150,74.833 71.245,74.833 71.633 C 74.833 71.996,74.913 72.167,75.083 72.167 C 75.224 72.167,75.333 72.315,75.333 72.505 C 75.333 72.691,75.446 72.887,75.583 72.940 C 75.721 72.992,75.833 73.106,75.833 73.191 C 75.833 73.277,76.050 73.813,76.315 74.382 C 80.876 84.183,78.295 96.075,69.758 104.586 C 67.627 106.711,67.411 106.904,65.583 108.321 C 64.942 108.818,64.357 109.324,64.283 109.446 C 64.210 109.567,64.039 109.667,63.903 109.667 C 63.767 109.667,63.613 109.779,63.560 109.917 C 63.508 110.054,63.322 110.167,63.149 110.167 C 62.975 110.167,62.833 110.279,62.833 110.417 C 62.833 110.556,62.685 110.667,62.500 110.667 C 62.315 110.667,62.167 110.778,62.167 110.917 C 62.167 111.054,62.282 111.167,62.422 111.167 C 62.562 111.167,62.720 111.054,62.773 110.917 C 62.826 110.779,63.048 110.667,63.268 110.667 C 63.511 110.667,63.667 110.569,63.667 110.417 C 63.667 110.250,63.833 110.167,64.167 110.167 C 64.500 110.167,64.667 110.083,64.667 109.917 C 64.667 109.760,64.825 109.667,65.089 109.667 C 65.321 109.667,65.554 109.554,65.606 109.417 C 65.659 109.279,65.809 109.167,65.940 109.167 C 66.070 109.167,66.220 109.054,66.273 108.917 C 66.326 108.779,66.551 108.667,66.773 108.667 C 66.995 108.667,67.220 108.554,67.273 108.417 C 67.326 108.279,67.540 108.167,67.750 108.167 C 67.960 108.167,68.174 108.054,68.227 107.917 C 68.280 107.779,68.513 107.667,68.745 107.667 C 69.009 107.667,69.167 107.573,69.167 107.417 C 69.167 107.260,69.325 107.167,69.589 107.167 C 69.821 107.167,70.054 107.054,70.106 106.917 C 70.159 106.779,70.309 106.667,70.440 106.667 C 70.570 106.667,70.720 106.554,70.773 106.417 C 70.826 106.279,71.051 106.167,71.273 106.167 C 71.495 106.167,71.720 106.054,71.773 105.917 C 71.826 105.779,72.040 105.667,72.250 105.667 C 72.460 105.667,72.674 105.554,72.727 105.417 C 72.780 105.279,73.013 105.167,73.245 105.167 C 73.509 105.167,73.667 105.073,73.667 104.917 C 73.667 104.778,73.815 104.667,74.000 104.667 C 74.185 104.667,74.333 104.556,74.333 104.417 C 74.333 104.260,74.491 104.167,74.755 104.167 C 74.987 104.167,75.220 104.054,75.273 103.917 C 75.326 103.779,75.551 103.667,75.773 103.667 C 75.995 103.667,76.220 103.554,76.273 103.417 C 76.326 103.279,76.548 103.167,76.768 103.167 C 77.011 103.167,77.167 103.069,77.167 102.917 C 77.167 102.760,77.325 102.667,77.589 102.667 C 77.821 102.667,78.054 102.554,78.106 102.417 C 78.159 102.279,78.309 102.167,78.440 102.167 C 78.570 102.167,78.720 102.054,78.773 101.917 C 78.826 101.779,79.051 101.667,79.273 101.667 C 79.495 101.667,79.720 101.554,79.773 101.417 C 79.826 101.279,80.040 101.167,80.250 101.167 C 80.460 101.167,80.674 101.054,80.727 100.917 C 80.780 100.779,81.013 100.667,81.245 100.667 C 81.509 100.667,81.667 100.573,81.667 100.417 C 81.667 100.260,81.825 100.167,82.089 100.167 C 82.321 100.167,82.554 100.054,82.606 99.917 C 82.659 99.779,82.809 99.667,82.940 99.667 C 83.070 99.667,83.220 99.554,83.273 99.417 C 83.326 99.279,83.551 99.167,83.773 99.167 C 83.995 99.167,84.220 99.054,84.273 98.917 C 84.326 98.779,84.540 98.667,84.750 98.667 C 84.960 98.667,85.174 98.554,85.227 98.417 C 85.280 98.279,85.513 98.167,85.745 98.167 C 86.009 98.167,86.167 98.073,86.167 97.917 C 86.167 97.776,86.315 97.667,86.505 97.667 C 86.691 97.667,86.887 97.554,86.940 97.417 C 86.992 97.279,87.180 97.167,87.356 97.167 C 87.533 97.167,87.720 97.054,87.773 96.917 C 87.826 96.779,88.051 96.667,88.273 96.667 C 88.495 96.667,88.720 96.554,88.773 96.417 C 88.826 96.279,89.040 96.167,89.250 96.167 C 89.460 96.167,89.674 96.054,89.727 95.917 C 89.780 95.779,90.013 95.667,90.245 95.667 C 90.509 95.667,90.667 95.573,90.667 95.417 C 90.667 95.278,90.815 95.167,91.000 95.167 C 91.185 95.167,91.333 95.056,91.333 94.917 C 91.333 94.760,91.491 94.667,91.755 94.667 C 91.987 94.667,92.220 94.554,92.273 94.417 C 92.326 94.279,92.548 94.167,92.768 94.167 C 93.011 94.167,93.167 94.069,93.167 93.917 C 93.167 93.750,93.333 93.667,93.667 93.667 C 94.000 93.667,94.167 93.583,94.167 93.417 C 94.167 93.260,94.325 93.167,94.589 93.167 C 94.821 93.167,95.054 93.054,95.106 92.917 C 95.159 92.779,95.309 92.667,95.440 92.667 C 95.570 92.667,95.720 92.554,95.773 92.417 C 95.826 92.279,96.051 92.167,96.273 92.167 C 96.495 92.167,96.720 92.054,96.773 91.917 C 96.826 91.779,97.040 91.667,97.250 91.667 C 97.460 91.667,97.674 91.554,97.727 91.417 C 97.780 91.279,98.013 91.167,98.245 91.167 C 98.509 91.167,98.667 91.073,98.667 90.917 C 98.667 90.779,98.782 90.667,98.922 90.667 C 99.062 90.667,99.220 90.554,99.273 90.417 C 99.326 90.279,99.548 90.167,99.768 90.167 C 100.011 90.167,100.167 90.069,100.167 89.917 C 100.167 89.779,100.271 89.667,100.399 89.667 C 100.527 89.667,100.674 89.554,100.727 89.417 C 100.780 89.279,100.938 89.167,101.078 89.167 C 101.218 89.167,101.333 89.054,101.333 88.917 C 101.333 88.779,101.446 88.667,101.583 88.667 C 101.721 88.667,101.833 88.554,101.833 88.417 C 101.833 88.279,101.946 88.167,102.083 88.167 C 102.221 88.167,102.333 88.094,102.333 88.006 C 102.333 87.917,102.552 87.621,102.819 87.348 C 103.087 87.074,103.354 86.697,103.414 86.509 C 103.474 86.320,103.592 86.167,103.678 86.167 C 103.763 86.167,103.833 86.060,103.833 85.931 C 103.833 85.801,103.910 85.669,104.004 85.638 C 104.098 85.606,104.223 85.282,104.282 84.917 C 104.342 84.552,104.499 84.144,104.631 84.011 C 104.939 83.703,104.848 79.977,104.530 79.871 C 104.422 79.835,104.333 79.622,104.333 79.398 C 104.333 79.173,104.221 78.946,104.083 78.894 C 103.946 78.841,103.833 78.616,103.833 78.394 C 103.833 78.171,103.728 77.949,103.598 77.899 C 103.469 77.850,103.321 77.639,103.268 77.430 C 103.166 77.024,101.140 74.833,100.866 74.833 C 100.776 74.833,100.659 74.721,100.606 74.583 C 100.554 74.446,100.366 74.333,100.190 74.333 C 100.013 74.333,99.826 74.221,99.773 74.083 C 99.720 73.946,99.562 73.833,99.422 73.833 C 99.282 73.833,99.167 73.721,99.167 73.583 C 99.167 73.431,99.011 73.333,98.768 73.333 C 98.548 73.333,98.326 73.221,98.273 73.083 C 98.220 72.946,97.985 72.833,97.750 72.833 C 97.515 72.833,97.280 72.721,97.227 72.583 C 97.174 72.446,97.036 72.333,96.919 72.333 C 96.803 72.333,96.614 72.221,96.500 72.083 C 96.386 71.946,96.152 71.833,95.980 71.833 C 95.807 71.833,95.667 71.721,95.667 71.583 C 95.667 71.427,95.509 71.333,95.245 71.333 C 95.013 71.333,94.780 71.221,94.727 71.083 C 94.674 70.946,94.449 70.833,94.227 70.833 C 94.005 70.833,93.780 70.721,93.727 70.583 C 93.674 70.446,93.460 70.333,93.250 70.333 C 93.040 70.333,92.826 70.221,92.773 70.083 C 92.720 69.946,92.495 69.833,92.273 69.833 C 92.051 69.833,91.826 69.721,91.773 69.583 C 91.720 69.446,91.570 69.333,91.440 69.333 C 91.309 69.333,91.159 69.221,91.106 69.083 C 91.054 68.946,90.821 68.833,90.589 68.833 C 90.325 68.833,90.167 68.740,90.167 68.583 C 90.167 68.427,90.009 68.333,89.745 68.333 C 89.513 68.333,89.280 68.221,89.227 68.083 C 89.174 67.946,88.960 67.833,88.750 67.833 C 88.540 67.833,88.326 67.721,88.273 67.583 C 88.220 67.446,87.985 67.333,87.750 67.333 C 87.515 67.333,87.280 67.221,87.227 67.083 C 87.174 66.946,87.036 66.833,86.919 66.833 C 86.803 66.833,86.614 66.721,86.500 66.583 C 86.386 66.446,86.152 66.333,85.980 66.333 C 85.807 66.333,85.667 66.221,85.667 66.083 C 85.667 65.917,85.500 65.833,85.167 65.833 C 84.833 65.833,84.667 65.750,84.667 65.583 C 84.667 65.427,84.509 65.333,84.245 65.333 C 84.013 65.333,83.780 65.221,83.727 65.083 C 83.674 64.946,83.460 64.833,83.250 64.833 C 83.040 64.833,82.826 64.721,82.773 64.583 C 82.720 64.446,82.495 64.333,82.273 64.333 C 82.051 64.333,81.826 64.221,81.773 64.083 C 81.720 63.946,81.570 63.833,81.440 63.833 C 81.309 63.833,81.159 63.721,81.106 63.583 C 81.054 63.446,80.821 63.333,80.589 63.333 C 80.325 63.333,80.167 63.240,80.167 63.083 C 80.167 62.927,80.009 62.833,79.745 62.833 C 79.513 62.833,79.280 62.721,79.227 62.583 C 79.174 62.446,78.960 62.333,78.750 62.333 C 78.540 62.333,78.326 62.221,78.273 62.083 C 78.220 61.946,77.985 61.833,77.750 61.833 C 77.515 61.833,77.280 61.721,77.227 61.583 C 77.174 61.446,77.036 61.333,76.919 61.333 C 76.803 61.333,76.614 61.221,76.500 61.083 C 76.386 60.946,76.152 60.833,75.980 60.833 C 75.807 60.833,75.667 60.721,75.667 60.583 C 75.667 60.417,75.500 60.333,75.167 60.333 C 74.833 60.333,74.667 60.250,74.667 60.083 C 74.667 59.927,74.509 59.833,74.245 59.833 C 74.013 59.833,73.780 59.721,73.727 59.583 C 73.674 59.446,73.460 59.333,73.250 59.333 C 73.040 59.333,72.826 59.221,72.773 59.083 C 72.720 58.946,72.495 58.833,72.273 58.833 C 72.051 58.833,71.826 58.721,71.773 58.583 C 71.720 58.446,71.570 58.333,71.440 58.333 C 71.309 58.333,71.159 58.221,71.106 58.083 C 71.043 57.918,70.782 57.833,70.339 57.833 C 69.852 57.833,69.667 57.764,69.667 57.583 C 69.667 57.381,69.398 57.333,68.250 57.333 C 67.102 57.333,66.833 57.381,66.833 57.583 M155.000 57.583 C 154.886 57.721,154.612 57.833,154.391 57.833 C 154.170 57.833,153.946 57.946,153.894 58.083 C 153.839 58.226,153.590 58.333,153.316 58.333 C 152.998 58.333,152.833 58.419,152.833 58.583 C 152.833 58.750,152.667 58.833,152.333 58.833 C 151.748 58.833,151.562 60.371,152.083 60.893 C 152.231 61.041,152.333 61.448,152.333 61.893 C 152.333 62.337,152.435 62.745,152.583 62.893 C 152.800 63.110,152.833 64.505,152.833 73.405 L 152.833 83.667 155.333 83.667 L 157.833 83.667 157.833 73.992 L 157.833 64.317 158.392 63.742 C 158.699 63.425,159.076 63.167,159.230 63.167 C 159.384 63.167,159.554 63.054,159.606 62.917 C 159.659 62.779,159.809 62.667,159.940 62.667 C 160.070 62.667,160.220 62.554,160.273 62.417 C 160.340 62.243,160.611 62.167,161.164 62.167 C 161.668 62.167,162.035 62.075,162.167 61.917 C 162.294 61.763,162.660 61.667,163.116 61.667 C 163.553 61.667,163.960 61.769,164.107 61.917 C 164.254 62.064,164.661 62.167,165.095 62.167 C 165.640 62.167,165.833 62.232,165.833 62.417 C 165.833 62.554,165.908 62.667,166.000 62.667 C 166.216 62.667,166.833 63.284,166.833 63.500 C 166.833 63.592,166.946 63.667,167.083 63.667 C 167.270 63.667,167.335 63.868,167.339 64.458 C 167.342 64.894,167.340 69.232,167.334 74.100 C 167.320 84.845,166.959 83.697,170.333 83.631 L 172.750 83.583 172.793 73.875 C 172.821 67.595,172.894 64.167,173.001 64.167 C 173.092 64.167,173.167 64.054,173.167 63.917 C 173.167 63.779,173.244 63.667,173.339 63.667 C 173.434 63.667,173.731 63.442,174.000 63.167 C 174.289 62.871,174.662 62.667,174.911 62.667 C 175.175 62.667,175.333 62.573,175.333 62.417 C 175.333 62.225,175.546 62.167,176.250 62.167 C 176.954 62.167,177.167 62.109,177.167 61.917 C 177.167 61.729,177.368 61.667,177.982 61.667 C 178.553 61.667,178.826 61.742,178.894 61.917 C 178.957 62.082,179.218 62.167,179.661 62.167 C 180.148 62.167,180.333 62.236,180.333 62.417 C 180.333 62.583,180.500 62.667,180.833 62.667 C 181.167 62.667,181.333 62.750,181.333 62.917 C 181.333 63.054,181.446 63.167,181.583 63.167 C 181.750 63.167,181.833 63.333,181.833 63.667 C 181.833 64.000,181.917 64.167,182.083 64.167 C 182.303 64.167,182.333 65.361,182.333 73.917 L 182.333 83.667 184.992 83.667 L 187.652 83.667 187.751 83.125 C 187.958 82.004,187.763 64.696,187.542 64.475 C 187.427 64.360,187.333 63.991,187.333 63.654 C 187.333 63.312,187.223 62.949,187.083 62.833 C 186.946 62.719,186.833 62.457,186.833 62.250 C 186.833 62.043,186.721 61.781,186.583 61.667 C 186.446 61.553,186.333 61.354,186.333 61.224 C 186.333 61.095,186.221 60.946,186.083 60.894 C 185.946 60.841,185.833 60.693,185.833 60.566 C 185.833 60.438,185.721 60.333,185.583 60.333 C 185.446 60.333,185.333 60.221,185.333 60.083 C 185.333 59.946,185.260 59.833,185.171 59.833 C 185.082 59.833,184.671 59.496,184.259 59.083 C 183.846 58.671,183.354 58.333,183.166 58.333 C 182.977 58.333,182.780 58.221,182.727 58.083 C 182.662 57.914,182.396 57.833,181.899 57.833 C 181.359 57.833,181.167 57.768,181.167 57.583 C 181.167 57.372,180.767 57.333,178.571 57.333 C 176.487 57.333,175.927 57.383,175.726 57.583 C 175.589 57.721,175.219 57.833,174.905 57.833 C 174.508 57.833,174.333 57.910,174.333 58.083 C 174.333 58.250,174.167 58.333,173.833 58.333 C 173.500 58.333,173.333 58.417,173.333 58.583 C 173.333 58.750,173.167 58.833,172.833 58.833 C 172.500 58.833,172.333 58.917,172.333 59.083 C 172.333 59.221,172.221 59.333,172.083 59.333 C 171.946 59.333,171.833 59.446,171.833 59.583 C 171.833 59.721,171.721 59.833,171.583 59.833 C 171.446 59.833,171.333 59.946,171.333 60.083 C 171.333 60.534,170.866 60.346,170.092 59.583 C 169.674 59.171,169.227 58.833,169.100 58.833 C 168.973 58.833,168.826 58.721,168.773 58.583 C 168.720 58.446,168.485 58.333,168.250 58.333 C 168.015 58.333,167.780 58.221,167.727 58.083 C 167.662 57.914,167.396 57.833,166.899 57.833 C 166.359 57.833,166.167 57.768,166.167 57.583 C 166.167 57.373,165.787 57.333,163.750 57.333 C 161.713 57.333,161.333 57.373,161.333 57.583 C 161.333 57.750,161.167 57.833,160.833 57.833 C 160.500 57.833,160.333 57.917,160.333 58.083 C 160.333 58.250,160.167 58.333,159.833 58.333 C 159.500 58.333,159.333 58.417,159.333 58.583 C 159.333 58.750,159.167 58.833,158.833 58.833 C 158.500 58.833,158.333 58.917,158.333 59.083 C 158.333 59.221,158.221 59.333,158.083 59.333 C 157.946 59.333,157.833 59.446,157.833 59.583 C 157.833 59.721,157.721 59.833,157.583 59.833 C 157.446 59.833,157.333 59.689,157.333 59.514 C 157.333 59.338,157.227 58.981,157.097 58.722 C 156.968 58.462,156.782 58.044,156.684 57.792 C 156.478 57.259,155.382 57.123,155.000 57.583 M200.607 57.583 C 200.458 57.733,200.050 57.833,199.595 57.833 C 199.029 57.833,198.833 57.898,198.833 58.083 C 198.833 58.264,198.648 58.333,198.161 58.333 C 197.718 58.333,197.457 58.418,197.394 58.583 C 197.339 58.726,197.090 58.833,196.816 58.833 C 196.498 58.833,196.333 58.919,196.333 59.083 C 196.333 59.250,196.167 59.333,195.833 59.333 C 195.500 59.333,195.333 59.417,195.333 59.583 C 195.333 59.721,195.229 59.833,195.101 59.833 C 194.621 59.833,194.626 61.431,195.107 61.616 C 195.232 61.663,195.333 61.807,195.333 61.934 C 195.333 62.062,195.446 62.167,195.583 62.167 C 195.750 62.167,195.833 62.333,195.833 62.667 C 195.833 62.983,195.919 63.167,196.065 63.167 C 196.193 63.167,196.344 63.354,196.402 63.583 C 196.501 63.978,197.000 64.187,197.000 63.833 C 197.000 63.742,197.254 63.667,197.566 63.667 C 197.914 63.667,198.168 63.571,198.227 63.417 C 198.280 63.279,198.505 63.167,198.727 63.167 C 198.949 63.167,199.174 63.054,199.227 62.917 C 199.280 62.779,199.515 62.667,199.750 62.667 C 199.985 62.667,200.220 62.554,200.273 62.417 C 200.345 62.230,200.642 62.167,201.440 62.167 C 202.238 62.167,202.535 62.103,202.606 61.917 C 202.680 61.724,203.000 61.667,204.000 61.667 C 205.000 61.667,205.320 61.724,205.394 61.917 C 205.463 62.097,205.746 62.167,206.411 62.167 C 207.120 62.167,207.333 62.225,207.333 62.417 C 207.333 62.554,207.438 62.667,207.566 62.667 C 207.693 62.667,207.841 62.779,207.894 62.917 C 207.946 63.054,208.179 63.167,208.411 63.167 C 208.769 63.167,208.833 63.243,208.833 63.667 C 208.833 64.000,208.917 64.167,209.083 64.167 C 209.269 64.167,209.333 64.361,209.333 64.917 C 209.333 65.472,209.398 65.667,209.583 65.667 C 209.785 65.667,209.833 65.926,209.833 67.000 L 209.833 68.333 204.270 68.333 C 199.529 68.333,198.677 68.370,198.500 68.583 C 198.386 68.721,198.048 68.833,197.750 68.833 C 197.452 68.833,197.120 68.938,197.014 69.067 C 196.907 69.195,196.635 69.347,196.410 69.403 C 196.184 69.460,196.000 69.580,196.000 69.670 C 196.000 69.760,195.850 69.833,195.667 69.833 C 195.481 69.833,195.333 69.944,195.333 70.083 C 195.333 70.221,195.221 70.333,195.083 70.333 C 194.946 70.333,194.833 70.446,194.833 70.583 C 194.833 70.721,194.721 70.833,194.583 70.833 C 194.446 70.833,194.333 70.946,194.333 71.083 C 194.333 71.221,194.221 71.333,194.083 71.333 C 193.946 71.333,193.833 71.438,193.833 71.566 C 193.833 71.693,193.721 71.841,193.583 71.894 C 193.446 71.946,193.333 72.179,193.333 72.411 C 193.333 72.675,193.240 72.833,193.083 72.833 C 192.898 72.833,192.833 73.028,192.833 73.583 C 192.833 74.139,192.769 74.333,192.583 74.333 C 192.376 74.333,192.333 74.657,192.333 76.250 C 192.333 77.843,192.376 78.167,192.583 78.167 C 192.769 78.167,192.833 78.361,192.833 78.917 C 192.833 79.472,192.898 79.667,193.083 79.667 C 193.250 79.667,193.333 79.833,193.333 80.167 C 193.333 80.500,193.417 80.667,193.583 80.667 C 193.721 80.667,193.833 80.779,193.833 80.917 C 193.833 81.054,193.946 81.167,194.083 81.167 C 194.221 81.167,194.333 81.279,194.333 81.417 C 194.333 81.554,194.446 81.667,194.583 81.667 C 194.721 81.667,194.833 81.779,194.833 81.917 C 194.833 82.054,194.946 82.167,195.083 82.167 C 195.221 82.167,195.333 82.279,195.333 82.417 C 195.333 82.554,195.446 82.667,195.583 82.667 C 195.721 82.667,195.833 82.779,195.833 82.917 C 195.833 83.083,196.000 83.167,196.333 83.167 C 196.667 83.167,196.833 83.250,196.833 83.417 C 196.833 83.583,197.000 83.667,197.333 83.667 C 197.667 83.667,197.833 83.750,197.833 83.917 C 197.833 84.130,198.296 84.167,201.000 84.167 C 203.704 84.167,204.167 84.130,204.167 83.917 C 204.167 83.732,204.359 83.667,204.899 83.667 C 205.396 83.667,205.662 83.586,205.727 83.417 C 205.787 83.259,206.043 83.167,206.417 83.167 C 206.791 83.167,207.046 83.074,207.106 82.917 C 207.159 82.779,207.384 82.667,207.606 82.667 C 207.829 82.667,208.054 82.554,208.106 82.417 C 208.159 82.279,208.303 82.167,208.426 82.167 C 208.549 82.167,208.712 82.057,208.787 81.922 C 209.194 81.195,210.333 81.628,210.333 82.510 C 210.333 82.983,210.403 83.167,210.583 83.167 C 210.721 83.167,210.833 83.281,210.833 83.421 C 210.833 83.640,211.206 83.669,213.542 83.629 L 216.250 83.583 216.301 83.146 C 216.329 82.905,216.239 82.596,216.101 82.458 C 215.963 82.320,215.800 82.010,215.740 81.770 C 215.680 81.530,215.574 81.333,215.505 81.333 C 215.436 81.333,215.334 80.950,215.279 80.482 C 215.224 80.014,215.103 79.541,215.011 79.430 C 214.905 79.303,214.826 76.397,214.797 71.608 C 214.764 66.272,214.695 63.952,214.566 63.869 C 214.464 63.803,214.331 63.478,214.270 63.145 C 214.209 62.813,213.979 62.346,213.759 62.109 C 213.539 61.872,213.307 61.512,213.242 61.309 C 213.103 60.871,212.130 59.833,211.858 59.833 C 211.753 59.833,211.667 59.721,211.667 59.583 C 211.667 59.446,211.525 59.333,211.351 59.333 C 211.178 59.333,210.992 59.221,210.940 59.083 C 210.887 58.946,210.691 58.833,210.505 58.833 C 210.315 58.833,210.167 58.724,210.167 58.583 C 210.167 58.419,210.002 58.333,209.684 58.333 C 209.410 58.333,209.161 58.226,209.106 58.083 C 209.039 57.907,208.763 57.833,208.167 57.833 C 207.570 57.833,207.295 57.760,207.227 57.583 C 207.146 57.373,206.629 57.333,203.994 57.333 C 201.428 57.333,200.812 57.379,200.607 57.583 M223.833 57.583 C 223.833 57.750,223.667 57.833,223.333 57.833 C 223.000 57.833,222.833 57.917,222.833 58.083 C 222.833 58.250,222.667 58.333,222.333 58.333 C 222.009 58.333,221.833 58.418,221.833 58.574 C 221.833 58.737,221.607 58.831,221.125 58.865 C 220.374 58.920,219.845 60.167,220.573 60.167 C 220.749 60.167,220.833 60.323,220.833 60.646 C 220.833 60.910,220.945 61.219,221.082 61.332 C 221.297 61.511,221.337 63.026,221.374 72.561 L 221.417 83.583 224.083 83.583 L 226.750 83.583 226.793 75.833 C 226.829 69.372,226.877 67.996,227.085 67.558 C 227.221 67.269,227.333 66.726,227.333 66.350 C 227.333 65.974,227.402 65.667,227.487 65.667 C 227.571 65.667,227.690 65.442,227.750 65.167 C 227.810 64.892,227.923 64.667,228.000 64.667 C 228.077 64.667,228.190 64.442,228.250 64.167 C 228.310 63.892,228.466 63.667,228.597 63.667 C 228.727 63.667,228.833 63.554,228.833 63.417 C 228.833 63.261,228.991 63.167,229.250 63.167 C 229.509 63.167,229.667 63.072,229.667 62.917 C 229.667 62.710,229.981 62.667,231.500 62.667 C 233.019 62.667,233.333 62.710,233.333 62.917 C 233.333 63.430,234.642 63.241,234.772 62.708 C 234.834 62.456,234.951 62.206,235.032 62.153 C 235.112 62.100,235.226 61.763,235.284 61.405 C 235.342 61.046,235.490 60.653,235.612 60.531 C 235.734 60.409,235.833 60.165,235.833 59.988 C 235.833 59.811,235.908 59.667,236.000 59.667 C 236.092 59.667,236.167 59.367,236.167 59.000 C 236.167 58.398,236.126 58.333,235.745 58.333 C 235.513 58.333,235.280 58.221,235.227 58.083 C 235.164 57.920,234.905 57.833,234.477 57.833 C 234.049 57.833,233.790 57.747,233.727 57.583 C 233.649 57.379,233.238 57.333,231.482 57.333 C 229.683 57.333,229.333 57.374,229.333 57.583 C 229.333 57.750,229.167 57.833,228.833 57.833 C 228.500 57.833,228.333 57.917,228.333 58.083 C 228.333 58.221,228.221 58.333,228.083 58.333 C 227.946 58.333,227.833 58.404,227.833 58.491 C 227.833 58.578,227.627 58.747,227.375 58.867 C 227.116 58.991,226.893 59.249,226.863 59.460 C 226.786 60.002,226.378 59.918,226.250 59.333 C 226.190 59.058,226.079 58.833,226.005 58.833 C 225.930 58.833,225.822 58.645,225.764 58.414 C 225.531 57.486,223.833 56.756,223.833 57.583 M292.394 57.583 C 292.329 57.752,292.065 57.833,291.586 57.833 C 291.157 57.833,290.792 57.933,290.667 58.083 C 290.553 58.221,290.206 58.333,289.896 58.333 C 289.507 58.333,289.333 58.410,289.333 58.583 C 289.333 58.740,289.175 58.833,288.911 58.833 C 288.679 58.833,288.446 58.946,288.394 59.083 C 288.341 59.221,288.193 59.333,288.066 59.333 C 287.938 59.333,287.833 59.446,287.833 59.583 C 287.833 59.721,287.721 59.833,287.583 59.833 C 287.446 59.833,287.333 59.946,287.333 60.083 C 287.333 60.221,287.221 60.333,287.083 60.333 C 286.946 60.333,286.833 60.446,286.833 60.583 C 286.833 60.721,286.721 60.833,286.583 60.833 C 286.446 60.833,286.333 60.946,286.333 61.083 C 286.333 61.221,286.221 61.333,286.083 61.333 C 285.946 61.333,285.833 61.446,285.833 61.583 C 285.833 61.721,285.721 61.833,285.583 61.833 C 285.446 61.833,285.333 61.938,285.333 62.066 C 285.333 62.193,285.221 62.341,285.083 62.394 C 284.946 62.446,284.833 62.679,284.833 62.911 C 284.833 63.175,284.740 63.333,284.583 63.333 C 284.419 63.333,284.333 63.498,284.333 63.816 C 284.333 64.090,284.226 64.339,284.083 64.394 C 283.904 64.463,283.833 64.744,283.833 65.394 C 283.833 66.043,283.763 66.325,283.583 66.394 C 283.371 66.475,283.333 67.077,283.333 70.391 C 283.333 73.656,283.374 74.326,283.583 74.500 C 283.754 74.641,283.833 75.020,283.833 75.687 C 283.833 76.447,283.889 76.667,284.083 76.667 C 284.269 76.667,284.333 76.861,284.333 77.417 C 284.333 77.972,284.398 78.167,284.583 78.167 C 284.750 78.167,284.833 78.333,284.833 78.667 C 284.833 78.955,284.922 79.167,285.042 79.168 C 285.156 79.169,285.398 79.507,285.579 79.918 C 285.760 80.330,286.004 80.667,286.121 80.667 C 286.238 80.667,286.333 80.779,286.333 80.917 C 286.333 81.054,286.446 81.167,286.583 81.167 C 286.721 81.167,286.833 81.279,286.833 81.417 C 286.833 81.554,286.946 81.667,287.083 81.667 C 287.221 81.667,287.333 81.779,287.333 81.917 C 287.333 82.083,287.500 82.167,287.833 82.167 C 288.167 82.167,288.333 82.250,288.333 82.417 C 288.333 82.554,288.438 82.667,288.566 82.667 C 288.693 82.667,288.841 82.779,288.894 82.917 C 288.946 83.054,289.185 83.167,289.423 83.167 C 289.662 83.167,289.970 83.279,290.107 83.417 C 290.254 83.564,290.661 83.667,291.095 83.667 C 291.640 83.667,291.833 83.732,291.833 83.917 C 291.833 84.132,292.371 84.167,295.672 84.167 C 298.930 84.167,299.525 84.129,299.606 83.917 C 299.669 83.753,299.929 83.667,300.356 83.667 C 300.784 83.667,301.044 83.580,301.106 83.417 C 301.161 83.274,301.410 83.167,301.684 83.167 C 302.002 83.167,302.167 83.081,302.167 82.917 C 302.167 82.779,302.282 82.667,302.422 82.667 C 302.562 82.667,302.720 82.554,302.773 82.417 C 302.826 82.279,303.012 82.167,303.186 82.167 C 303.521 82.167,305.667 80.163,305.667 79.850 C 305.667 79.749,305.773 79.667,305.903 79.667 C 306.034 79.667,306.192 79.432,306.255 79.146 C 306.393 78.515,305.782 77.833,305.079 77.833 C 304.839 77.833,304.530 77.721,304.393 77.583 C 304.255 77.446,303.958 77.333,303.733 77.333 C 303.507 77.333,303.280 77.221,303.227 77.083 C 303.116 76.795,301.333 76.717,301.333 77.000 C 301.333 77.092,301.183 77.317,301.000 77.500 C 300.817 77.683,300.592 77.833,300.500 77.833 C 300.408 77.833,300.333 77.946,300.333 78.083 C 300.333 78.221,300.221 78.333,300.083 78.333 C 299.946 78.333,299.833 78.438,299.833 78.565 C 299.833 78.693,299.646 78.844,299.417 78.902 C 299.188 78.959,299.000 79.080,299.000 79.170 C 299.000 79.260,298.746 79.333,298.434 79.333 C 298.086 79.333,297.832 79.429,297.773 79.583 C 297.696 79.783,297.330 79.833,295.940 79.833 C 294.549 79.833,294.183 79.783,294.106 79.583 C 294.039 79.408,293.766 79.333,293.190 79.333 C 292.614 79.333,292.340 79.259,292.273 79.083 C 292.220 78.946,292.028 78.833,291.847 78.833 C 291.435 78.833,290.007 77.412,289.653 76.650 C 289.508 76.339,289.268 75.821,289.118 75.500 C 288.955 75.150,288.827 74.367,288.798 73.542 L 288.750 72.167 298.042 72.167 L 307.333 72.167 307.333 69.492 C 307.333 67.557,307.270 66.692,307.105 66.367 C 306.979 66.119,306.825 65.560,306.761 65.125 C 306.698 64.690,306.576 64.333,306.490 64.333 C 306.404 64.333,306.333 64.143,306.333 63.911 C 306.333 63.679,306.225 63.448,306.094 63.398 C 305.962 63.347,305.806 63.087,305.747 62.819 C 305.688 62.552,305.571 62.333,305.487 62.333 C 305.402 62.333,305.333 62.221,305.333 62.083 C 305.333 61.946,305.229 61.833,305.101 61.833 C 304.974 61.833,304.822 61.644,304.764 61.412 C 304.651 60.962,304.108 60.333,303.833 60.333 C 303.742 60.333,303.667 60.230,303.667 60.103 C 303.667 59.976,303.535 59.828,303.375 59.774 C 302.960 59.635,302.439 59.286,302.283 59.042 C 302.210 58.927,301.974 58.833,301.760 58.833 C 301.545 58.833,301.326 58.721,301.273 58.583 C 301.220 58.446,300.985 58.333,300.750 58.333 C 300.515 58.333,300.280 58.221,300.227 58.083 C 300.162 57.915,299.898 57.833,299.417 57.833 C 298.935 57.833,298.671 57.752,298.606 57.583 C 298.526 57.374,298.022 57.333,295.500 57.333 C 292.978 57.333,292.474 57.374,292.394 57.583 M318.894 57.583 C 318.829 57.752,318.565 57.833,318.083 57.833 C 317.602 57.833,317.338 57.915,317.273 58.083 C 317.210 58.248,316.949 58.333,316.505 58.333 C 316.019 58.333,315.833 58.402,315.833 58.583 C 315.833 58.750,315.667 58.833,315.333 58.833 C 315.000 58.833,314.833 58.917,314.833 59.083 C 314.833 59.250,314.667 59.333,314.333 59.333 C 314.010 59.333,313.833 59.418,313.833 59.572 C 313.833 59.709,313.637 59.834,313.375 59.864 C 312.830 59.927,312.588 60.916,313.073 61.102 C 313.216 61.157,313.333 61.307,313.333 61.434 C 313.333 61.562,313.446 61.667,313.583 61.667 C 313.750 61.667,313.833 61.833,313.833 62.167 C 313.833 62.500,313.917 62.667,314.083 62.667 C 314.221 62.667,314.336 62.798,314.339 62.958 C 314.351 63.632,315.409 64.432,315.606 63.917 C 315.661 63.774,315.910 63.667,316.184 63.667 C 316.502 63.667,316.667 63.581,316.667 63.417 C 316.667 63.250,316.833 63.167,317.167 63.167 C 317.500 63.167,317.667 63.083,317.667 62.917 C 317.667 62.752,317.831 62.667,318.149 62.667 C 318.424 62.667,318.672 62.559,318.727 62.417 C 318.799 62.230,319.098 62.167,319.917 62.167 C 320.735 62.167,321.035 62.104,321.106 61.917 C 321.180 61.724,321.500 61.667,322.500 61.667 C 323.500 61.667,323.820 61.724,323.894 61.917 C 323.956 62.080,324.216 62.167,324.644 62.167 C 325.071 62.167,325.331 62.253,325.394 62.417 C 325.446 62.554,325.679 62.667,325.911 62.667 C 326.175 62.667,326.333 62.760,326.333 62.917 C 326.333 63.054,326.446 63.167,326.583 63.167 C 326.721 63.167,326.833 63.279,326.833 63.417 C 326.833 63.554,326.946 63.667,327.083 63.667 C 327.221 63.667,327.333 63.779,327.333 63.917 C 327.333 64.054,327.446 64.167,327.583 64.167 C 327.792 64.167,327.833 64.499,327.833 66.154 C 327.833 67.907,327.868 68.151,328.125 68.218 C 328.285 68.260,325.810 68.303,322.625 68.314 C 317.597 68.331,316.833 68.366,316.833 68.583 C 316.833 68.764,316.648 68.833,316.161 68.833 C 315.718 68.833,315.457 68.918,315.394 69.083 C 315.339 69.226,315.090 69.333,314.816 69.333 C 314.498 69.333,314.333 69.419,314.333 69.583 C 314.333 69.721,314.221 69.833,314.083 69.833 C 313.946 69.833,313.833 69.946,313.833 70.083 C 313.833 70.221,313.721 70.333,313.583 70.333 C 313.446 70.333,313.333 70.446,313.333 70.583 C 313.333 70.721,313.221 70.833,313.083 70.833 C 312.946 70.833,312.833 70.946,312.833 71.083 C 312.833 71.221,312.721 71.333,312.583 71.333 C 312.446 71.333,312.333 71.446,312.333 71.583 C 312.333 71.721,312.221 71.833,312.083 71.833 C 311.917 71.833,311.833 72.000,311.833 72.333 C 311.833 72.667,311.750 72.833,311.583 72.833 C 311.417 72.833,311.333 73.000,311.333 73.333 C 311.333 73.667,311.250 73.833,311.083 73.833 C 310.873 73.833,310.833 74.213,310.833 76.250 C 310.833 78.287,310.873 78.667,311.083 78.667 C 311.264 78.667,311.333 78.852,311.333 79.339 C 311.333 79.782,311.418 80.043,311.583 80.106 C 311.721 80.159,311.833 80.307,311.833 80.434 C 311.833 80.562,311.946 80.667,312.083 80.667 C 312.240 80.667,312.333 80.825,312.333 81.089 C 312.333 81.321,312.446 81.554,312.583 81.606 C 312.721 81.659,312.833 81.807,312.833 81.934 C 312.833 82.062,312.938 82.167,313.066 82.167 C 313.193 82.167,313.341 82.279,313.394 82.417 C 313.446 82.554,313.679 82.667,313.911 82.667 C 314.175 82.667,314.333 82.760,314.333 82.917 C 314.333 83.054,314.438 83.167,314.566 83.167 C 314.693 83.167,314.841 83.279,314.894 83.417 C 314.957 83.582,315.218 83.667,315.661 83.667 C 316.148 83.667,316.333 83.736,316.333 83.917 C 316.333 84.130,316.788 84.167,319.422 84.167 C 322.014 84.167,322.526 84.126,322.606 83.917 C 322.672 83.747,322.937 83.667,323.434 83.667 C 323.974 83.667,324.167 83.601,324.167 83.417 C 324.167 83.249,324.334 83.167,324.672 83.167 C 324.967 83.167,325.217 83.063,325.273 82.917 C 325.326 82.779,325.551 82.667,325.773 82.667 C 325.995 82.667,326.220 82.554,326.273 82.417 C 326.326 82.279,326.551 82.167,326.773 82.167 C 326.995 82.167,327.220 82.054,327.273 81.917 C 327.326 81.779,327.543 81.667,327.756 81.667 C 327.984 81.667,328.173 81.547,328.218 81.375 C 328.260 81.215,328.303 81.327,328.314 81.625 C 328.327 81.987,328.416 82.167,328.583 82.167 C 328.739 82.167,328.833 82.324,328.833 82.583 C 328.833 83.529,329.245 83.667,332.083 83.667 L 334.667 83.667 334.667 83.108 C 334.667 82.742,334.522 82.393,334.250 82.099 C 334.006 81.836,333.833 81.450,333.833 81.170 C 333.833 80.906,333.721 80.578,333.583 80.440 C 333.368 80.226,333.333 79.119,333.333 72.544 C 333.333 66.078,333.296 64.847,333.089 64.574 C 332.954 64.396,332.842 64.012,332.839 63.720 C 332.836 63.429,332.733 63.091,332.611 62.969 C 332.489 62.847,332.338 62.541,332.275 62.290 C 332.212 62.039,332.087 61.833,331.997 61.833 C 331.907 61.833,331.833 61.721,331.833 61.583 C 331.833 61.446,331.727 61.333,331.597 61.333 C 331.466 61.333,331.310 61.108,331.250 60.833 C 331.190 60.558,331.034 60.333,330.903 60.333 C 330.773 60.333,330.667 60.221,330.667 60.083 C 330.667 59.946,330.562 59.833,330.434 59.833 C 330.307 59.833,330.159 59.721,330.106 59.583 C 330.054 59.446,329.856 59.333,329.667 59.333 C 329.478 59.333,329.280 59.221,329.227 59.083 C 329.174 58.946,329.035 58.833,328.917 58.833 C 328.799 58.833,328.659 58.721,328.606 58.583 C 328.551 58.439,328.302 58.333,328.017 58.333 C 327.746 58.333,327.411 58.221,327.274 58.083 C 327.133 57.943,326.726 57.833,326.345 57.833 C 325.853 57.833,325.667 57.765,325.667 57.583 C 325.667 57.369,325.185 57.333,322.328 57.333 C 319.514 57.333,318.974 57.373,318.894 57.583 M342.333 57.583 C 342.333 57.740,342.175 57.833,341.911 57.833 C 341.679 57.833,341.446 57.946,341.394 58.083 C 341.339 58.226,341.090 58.333,340.816 58.333 C 340.498 58.333,340.333 58.419,340.333 58.583 C 340.333 58.755,340.161 58.833,339.783 58.833 C 339.481 58.833,339.143 58.923,339.033 59.033 C 338.740 59.327,338.777 60.167,339.083 60.167 C 339.250 60.167,339.333 60.333,339.333 60.667 C 339.333 61.000,339.417 61.167,339.583 61.167 C 339.785 61.167,339.833 61.425,339.833 62.488 C 339.833 63.467,339.901 63.877,340.095 64.071 C 340.239 64.215,340.276 64.333,340.176 64.333 C 339.885 64.333,339.947 82.989,340.239 83.380 C 340.436 83.644,340.721 83.671,342.855 83.630 L 345.250 83.583 345.290 74.000 C 345.329 64.559,345.379 63.667,345.867 63.667 C 345.946 63.667,346.231 63.442,346.500 63.167 C 346.769 62.892,347.144 62.667,347.333 62.667 C 347.522 62.667,347.720 62.554,347.773 62.417 C 347.842 62.237,348.123 62.167,348.768 62.167 C 349.456 62.167,349.667 62.108,349.667 61.917 C 349.667 61.729,349.868 61.667,350.482 61.667 C 351.053 61.667,351.326 61.742,351.394 61.917 C 351.463 62.097,351.746 62.167,352.411 62.167 C 353.120 62.167,353.333 62.225,353.333 62.417 C 353.333 62.554,353.446 62.667,353.583 62.667 C 353.721 62.667,353.833 62.779,353.833 62.917 C 353.833 63.054,353.946 63.167,354.083 63.167 C 354.221 63.167,354.333 63.279,354.333 63.417 C 354.333 63.554,354.446 63.667,354.583 63.667 C 354.803 63.667,354.833 64.889,354.833 73.667 L 354.833 83.667 357.500 83.667 L 360.167 83.667 360.167 73.667 L 360.167 63.667 360.667 63.667 C 361.000 63.667,361.167 63.583,361.167 63.417 C 361.167 63.279,361.282 63.167,361.422 63.167 C 361.562 63.167,361.720 63.054,361.773 62.917 C 361.826 62.779,362.051 62.667,362.273 62.667 C 362.495 62.667,362.720 62.554,362.773 62.417 C 362.840 62.241,363.114 62.167,363.690 62.167 C 364.266 62.167,364.539 62.092,364.606 61.917 C 364.674 61.742,364.947 61.667,365.518 61.667 C 366.132 61.667,366.333 61.729,366.333 61.917 C 366.333 62.102,366.528 62.167,367.083 62.167 C 367.639 62.167,367.833 62.231,367.833 62.417 C 367.833 62.554,367.977 62.667,368.153 62.667 C 368.347 62.667,368.559 62.862,368.693 63.167 C 368.815 63.442,369.009 63.667,369.124 63.667 C 369.245 63.667,369.333 63.877,369.333 64.167 C 369.333 64.500,369.417 64.667,369.583 64.667 C 369.803 64.667,369.833 65.834,369.833 74.171 L 369.833 83.675 372.542 83.629 L 375.250 83.583 375.250 73.786 C 375.250 66.481,375.200 63.957,375.055 63.867 C 374.948 63.801,374.808 63.541,374.745 63.290 C 374.682 63.039,374.564 62.833,374.482 62.833 C 374.400 62.833,374.333 62.689,374.333 62.512 C 374.333 62.335,374.231 62.088,374.105 61.962 C 373.980 61.837,373.819 61.550,373.749 61.326 C 373.678 61.101,373.443 60.751,373.227 60.550 C 373.010 60.348,372.833 60.104,372.833 60.008 C 372.833 59.912,372.756 59.833,372.661 59.833 C 372.566 59.833,372.269 59.608,372.000 59.333 C 371.731 59.058,371.434 58.833,371.339 58.833 C 371.244 58.833,371.167 58.721,371.167 58.583 C 371.167 58.419,371.002 58.333,370.684 58.333 C 370.410 58.333,370.161 58.226,370.106 58.083 C 370.044 57.920,369.784 57.833,369.356 57.833 C 368.929 57.833,368.669 57.747,368.606 57.583 C 368.526 57.375,368.050 57.333,365.750 57.333 C 363.450 57.333,362.974 57.375,362.894 57.583 C 362.840 57.724,362.592 57.833,362.327 57.833 C 362.069 57.833,361.745 57.946,361.607 58.083 C 361.470 58.221,361.239 58.333,361.095 58.333 C 360.951 58.333,360.833 58.446,360.833 58.583 C 360.833 58.750,360.667 58.833,360.333 58.833 C 360.000 58.833,359.833 58.917,359.833 59.083 C 359.833 59.221,359.721 59.333,359.583 59.333 C 359.446 59.333,359.333 59.446,359.333 59.583 C 359.333 59.740,359.175 59.833,358.911 59.833 C 358.679 59.833,358.446 59.946,358.394 60.083 C 358.341 60.221,358.193 60.333,358.066 60.333 C 357.938 60.333,357.833 60.221,357.833 60.083 C 357.833 59.946,357.721 59.833,357.583 59.833 C 357.446 59.833,357.333 59.721,357.333 59.583 C 357.333 59.446,357.256 59.333,357.161 59.333 C 357.066 59.333,356.769 59.108,356.500 58.833 C 356.231 58.558,355.856 58.333,355.667 58.333 C 355.478 58.333,355.280 58.221,355.227 58.083 C 355.162 57.914,354.896 57.833,354.399 57.833 C 353.859 57.833,353.667 57.768,353.667 57.583 C 353.667 57.373,353.287 57.333,351.250 57.333 C 349.213 57.333,348.833 57.373,348.833 57.583 C 348.833 57.764,348.648 57.833,348.161 57.833 C 347.718 57.833,347.457 57.918,347.394 58.083 C 347.341 58.221,347.225 58.333,347.137 58.333 C 347.049 58.333,346.864 58.446,346.726 58.583 C 346.589 58.721,346.332 58.833,346.155 58.833 C 345.978 58.833,345.833 58.946,345.833 59.083 C 345.833 59.221,345.721 59.333,345.583 59.333 C 345.446 59.333,345.333 59.446,345.333 59.583 C 345.333 59.721,345.221 59.833,345.083 59.833 C 344.946 59.833,344.833 59.689,344.833 59.512 C 344.833 59.335,344.721 59.078,344.583 58.940 C 344.446 58.803,344.333 58.584,344.333 58.453 C 344.333 57.963,343.542 57.333,342.925 57.333 C 342.510 57.333,342.333 57.408,342.333 57.583 M296.333 61.917 C 296.333 62.111,296.556 62.167,297.333 62.167 C 298.111 62.167,298.333 62.222,298.333 62.417 C 298.333 62.583,298.500 62.667,298.833 62.667 C 299.167 62.667,299.333 62.750,299.333 62.917 C 299.333 63.054,299.446 63.167,299.583 63.167 C 299.721 63.167,299.833 63.279,299.833 63.417 C 299.833 63.554,299.946 63.667,300.083 63.667 C 300.221 63.667,300.333 63.779,300.333 63.917 C 300.333 64.054,300.446 64.167,300.583 64.167 C 300.721 64.167,300.833 64.279,300.833 64.417 C 300.833 64.554,300.946 64.667,301.083 64.667 C 301.250 64.667,301.333 64.833,301.333 65.167 C 301.333 65.500,301.417 65.667,301.583 65.667 C 301.770 65.667,301.833 65.864,301.833 66.445 C 301.833 66.936,301.935 67.336,302.109 67.529 C 302.376 67.823,302.161 67.833,295.542 67.833 L 288.698 67.833 288.784 67.125 C 288.887 66.268,289.834 64.183,290.125 64.173 C 290.240 64.170,290.333 64.054,290.333 63.917 C 290.333 63.779,290.446 63.667,290.583 63.667 C 290.721 63.667,290.833 63.554,290.833 63.417 C 290.833 63.261,290.991 63.167,291.250 63.167 C 291.509 63.167,291.667 63.072,291.667 62.917 C 291.667 62.750,291.833 62.667,292.167 62.667 C 292.500 62.667,292.667 62.583,292.667 62.417 C 292.667 62.229,292.868 62.167,293.480 62.167 C 293.999 62.167,294.367 62.076,294.500 61.917 C 294.633 61.757,295.001 61.667,295.520 61.667 C 296.132 61.667,296.333 61.729,296.333 61.917 M209.833 74.500 C 209.833 76.019,209.790 76.333,209.583 76.333 C 209.446 76.333,209.333 76.446,209.333 76.583 C 209.333 76.750,209.167 76.833,208.833 76.833 C 208.500 76.833,208.333 76.917,208.333 77.083 C 208.333 77.240,208.175 77.333,207.911 77.333 C 207.679 77.333,207.446 77.446,207.394 77.583 C 207.341 77.721,207.116 77.833,206.894 77.833 C 206.671 77.833,206.446 77.946,206.394 78.083 C 206.339 78.226,206.090 78.333,205.816 78.333 C 205.498 78.333,205.333 78.419,205.333 78.583 C 205.333 78.750,205.167 78.833,204.833 78.833 C 204.500 78.833,204.333 78.917,204.333 79.083 C 204.333 79.271,204.132 79.333,203.520 79.333 C 203.001 79.333,202.633 79.424,202.500 79.583 C 202.359 79.753,201.982 79.833,201.331 79.833 C 200.630 79.833,200.343 79.766,200.273 79.583 C 200.220 79.446,200.024 79.333,199.836 79.333 C 199.647 79.333,199.111 78.947,198.632 78.465 L 197.769 77.598 197.760 76.188 C 197.753 75.201,197.813 74.757,197.958 74.708 C 198.073 74.670,198.167 74.533,198.167 74.403 C 198.167 74.273,198.279 74.167,198.417 74.167 C 198.554 74.167,198.667 74.054,198.667 73.917 C 198.667 73.779,198.779 73.667,198.917 73.667 C 199.054 73.667,199.167 73.554,199.167 73.417 C 199.167 73.250,199.333 73.167,199.667 73.167 C 200.000 73.167,200.167 73.083,200.167 72.917 C 200.167 72.700,200.815 72.667,205.000 72.667 L 209.833 72.667 209.833 74.500 M327.833 74.417 C 327.833 75.965,327.867 76.169,328.125 76.186 C 328.403 76.204,328.403 76.209,328.125 76.282 C 327.965 76.323,327.833 76.465,327.833 76.596 C 327.833 76.749,327.655 76.833,327.333 76.833 C 327.000 76.833,326.833 76.917,326.833 77.083 C 326.833 77.250,326.667 77.333,326.333 77.333 C 326.000 77.333,325.833 77.417,325.833 77.583 C 325.833 77.750,325.667 77.833,325.333 77.833 C 325.000 77.833,324.833 77.917,324.833 78.083 C 324.833 78.250,324.667 78.333,324.333 78.333 C 324.000 78.333,323.833 78.417,323.833 78.583 C 323.833 78.764,323.648 78.833,323.161 78.833 C 322.718 78.833,322.457 78.918,322.394 79.083 C 322.331 79.247,322.071 79.333,321.644 79.333 C 321.216 79.333,320.956 79.420,320.894 79.583 C 320.823 79.767,320.534 79.833,319.810 79.833 C 319.086 79.833,318.797 79.767,318.727 79.583 C 318.672 79.441,318.424 79.333,318.149 79.333 C 317.872 79.333,317.667 79.244,317.667 79.123 C 317.667 79.007,317.504 78.838,317.305 78.748 C 317.107 78.657,316.863 78.437,316.764 78.257 C 316.664 78.078,316.490 77.828,316.375 77.703 C 316.260 77.578,316.167 77.332,316.167 77.155 C 316.167 76.978,316.092 76.833,316.000 76.833 C 315.908 76.833,315.833 76.571,315.833 76.250 C 315.833 75.929,315.899 75.667,315.980 75.667 C 316.061 75.667,316.212 75.329,316.316 74.917 C 316.420 74.504,316.579 74.167,316.669 74.167 C 316.759 74.167,316.833 74.054,316.833 73.917 C 316.833 73.776,316.982 73.667,317.172 73.667 C 317.358 73.667,317.554 73.554,317.606 73.417 C 317.661 73.274,317.910 73.167,318.184 73.167 C 318.502 73.167,318.667 73.081,318.667 72.917 C 318.667 72.701,319.287 72.667,323.250 72.667 L 327.833 72.667 327.833 74.417 " stroke="none" fill="#00b5e8" fill-rule="evenodd"></path><path id="path5" d="" stroke="none" fill="#9999ff" fill-rule="evenodd"></path><path id="path6" d="M252.214 81.750 C 252.216 82.208,252.248 82.376,252.286 82.123 C 252.325 81.869,252.324 81.494,252.284 81.289 C 252.244 81.084,252.213 81.292,252.214 81.750 " stroke="none" fill="#00ffff" fill-rule="evenodd"></path><path id="path7" d="M68.333 24.988 C 68.333 25.260,67.221 26.333,66.939 26.333 C 66.789 26.333,66.667 26.446,66.667 26.583 C 66.667 26.721,66.571 26.833,66.454 26.833 C 66.337 26.833,66.123 26.965,65.980 27.125 C 65.836 27.285,65.551 27.529,65.346 27.667 C 62.957 29.271,58.937 33.119,57.040 35.618 C 50.899 43.704,49.497 55.158,53.694 62.962 C 53.954 63.445,54.167 63.952,54.167 64.087 C 54.167 64.223,54.274 64.333,54.406 64.333 C 54.542 64.333,54.667 64.529,54.697 64.792 C 54.727 65.048,54.853 65.250,54.983 65.250 C 55.309 65.250,55.395 64.513,55.083 64.394 C 54.922 64.332,54.833 64.074,54.833 63.669 C 54.833 63.314,54.725 62.951,54.583 62.833 C 54.403 62.684,54.333 62.288,54.333 61.414 C 54.333 60.491,54.393 60.179,54.583 60.106 C 54.748 60.043,54.833 59.782,54.833 59.339 C 54.833 58.852,54.902 58.667,55.083 58.667 C 55.240 58.667,55.333 58.508,55.333 58.242 C 55.333 58.006,55.514 57.650,55.738 57.442 C 55.961 57.235,56.194 56.864,56.257 56.617 C 56.319 56.369,56.474 56.167,56.601 56.167 C 56.729 56.167,56.833 56.088,56.833 55.993 C 56.833 55.897,57.022 55.616,57.252 55.368 C 57.482 55.120,57.714 54.778,57.768 54.609 C 57.885 54.240,58.433 53.667,58.667 53.667 C 58.758 53.667,58.833 53.554,58.833 53.417 C 58.833 53.279,58.946 53.167,59.083 53.167 C 59.221 53.167,59.316 53.110,59.295 53.042 C 59.235 52.850,59.880 52.167,60.120 52.167 C 60.238 52.167,60.333 52.054,60.333 51.917 C 60.333 51.779,60.450 51.667,60.593 51.667 C 60.736 51.667,60.809 51.595,60.755 51.508 C 60.701 51.421,60.812 51.268,61.000 51.167 C 61.188 51.066,61.299 50.912,61.245 50.825 C 61.191 50.738,61.226 50.667,61.323 50.667 C 61.607 50.667,62.149 50.045,62.264 49.588 C 62.322 49.356,62.474 49.167,62.601 49.167 C 62.729 49.167,62.833 49.054,62.833 48.917 C 62.833 48.779,62.946 48.667,63.083 48.667 C 63.221 48.667,63.333 48.554,63.333 48.417 C 63.333 48.279,63.408 48.167,63.500 48.167 C 63.592 48.167,63.667 48.054,63.667 47.917 C 63.667 47.779,63.782 47.667,63.922 47.667 C 64.062 47.667,64.220 47.554,64.273 47.417 C 64.326 47.279,64.473 47.167,64.601 47.167 C 64.729 47.167,64.833 47.054,64.833 46.917 C 64.833 46.779,64.910 46.667,65.004 46.667 C 65.098 46.667,65.248 46.498,65.337 46.292 C 65.672 45.517,66.368 44.667,66.667 44.667 C 66.758 44.667,66.833 44.554,66.833 44.417 C 66.833 44.279,66.946 44.167,67.083 44.167 C 67.221 44.167,67.333 44.086,67.333 43.988 C 67.333 43.890,67.446 43.697,67.583 43.560 C 67.721 43.422,67.833 43.165,67.833 42.988 C 67.833 42.811,67.946 42.667,68.083 42.667 C 68.221 42.667,68.333 42.554,68.333 42.417 C 68.333 42.279,68.446 42.167,68.583 42.167 C 68.721 42.167,68.833 42.054,68.833 41.917 C 68.833 41.779,68.900 41.667,68.982 41.667 C 69.064 41.667,69.179 41.473,69.239 41.236 C 69.298 40.999,69.526 40.639,69.745 40.436 C 69.964 40.233,70.194 39.864,70.257 39.617 C 70.319 39.369,70.457 39.167,70.565 39.167 C 70.673 39.167,70.777 38.965,70.798 38.718 C 70.818 38.471,70.916 38.218,71.016 38.157 C 71.214 38.034,71.601 37.417,71.767 36.958 C 71.825 36.798,71.933 36.667,72.006 36.667 C 72.080 36.667,72.193 36.423,72.258 36.125 C 72.323 35.827,72.479 35.435,72.605 35.255 C 72.730 35.074,72.833 34.755,72.833 34.546 C 72.833 34.320,72.934 34.167,73.083 34.167 C 73.241 34.167,73.333 34.008,73.333 33.738 C 73.333 33.502,73.446 33.197,73.583 33.060 C 73.721 32.922,73.833 32.560,73.833 32.256 C 73.833 31.911,73.930 31.665,74.090 31.604 C 74.443 31.468,74.433 26.833,74.080 26.833 C 73.959 26.833,73.814 26.624,73.758 26.368 C 73.688 26.051,73.543 25.895,73.302 25.877 C 73.107 25.862,72.739 25.621,72.483 25.342 C 72.012 24.826,68.333 24.513,68.333 24.988 M55.333 65.583 C 55.333 65.721,55.443 65.833,55.578 65.833 C 55.727 65.833,55.785 65.736,55.727 65.583 C 55.674 65.446,55.564 65.333,55.482 65.333 C 55.400 65.333,55.333 65.446,55.333 65.583 M74.542 71.356 C 74.261 71.640,74.279 71.943,74.583 72.060 C 74.729 72.116,74.833 72.366,74.833 72.661 C 74.833 72.999,74.916 73.167,75.083 73.167 C 75.292 73.167,75.333 73.507,75.333 75.230 C 75.333 76.860,75.281 77.336,75.083 77.500 C 74.946 77.614,74.833 77.961,74.833 78.270 C 74.833 78.660,74.756 78.833,74.583 78.833 C 74.446 78.833,74.333 78.938,74.333 79.066 C 74.333 79.193,74.221 79.341,74.083 79.394 C 73.946 79.446,73.833 79.679,73.833 79.911 C 73.833 80.175,73.740 80.333,73.583 80.333 C 73.446 80.333,73.333 80.446,73.333 80.583 C 73.333 80.721,73.221 80.833,73.083 80.833 C 72.946 80.833,72.833 80.938,72.833 81.066 C 72.833 81.193,72.721 81.341,72.583 81.394 C 72.446 81.446,72.333 81.679,72.333 81.911 C 72.333 82.175,72.240 82.333,72.083 82.333 C 71.946 82.333,71.833 82.446,71.833 82.583 C 71.833 82.721,71.721 82.833,71.583 82.833 C 71.446 82.833,71.333 82.946,71.333 83.083 C 71.333 83.221,71.221 83.333,71.083 83.333 C 70.946 83.333,70.833 83.446,70.833 83.583 C 70.833 83.721,70.721 83.833,70.583 83.833 C 70.446 83.833,70.333 83.946,70.333 84.083 C 70.333 84.221,70.221 84.333,70.083 84.333 C 69.946 84.333,69.833 84.446,69.833 84.583 C 69.833 84.721,69.721 84.833,69.583 84.833 C 69.446 84.833,69.333 84.946,69.333 85.083 C 69.333 85.221,69.221 85.333,69.083 85.333 C 68.852 85.333,68.756 85.621,68.820 86.122 C 68.836 86.243,68.741 86.287,68.590 86.230 C 68.409 86.160,68.333 86.234,68.333 86.482 C 68.333 86.683,68.226 86.833,68.083 86.833 C 67.946 86.833,67.833 86.946,67.833 87.083 C 67.833 87.221,67.721 87.333,67.583 87.333 C 67.446 87.333,67.333 87.446,67.333 87.583 C 67.333 87.721,67.221 87.833,67.083 87.833 C 66.946 87.833,66.833 87.946,66.833 88.083 C 66.833 88.221,66.721 88.333,66.583 88.333 C 66.446 88.333,66.333 88.446,66.333 88.583 C 66.333 88.721,66.221 88.833,66.083 88.833 C 65.946 88.833,65.833 88.946,65.833 89.083 C 65.833 89.221,65.721 89.333,65.583 89.333 C 65.446 89.333,65.333 89.446,65.333 89.583 C 65.333 89.721,65.221 89.833,65.083 89.833 C 64.852 89.833,64.756 90.121,64.820 90.622 C 64.836 90.743,64.741 90.787,64.590 90.730 C 64.409 90.660,64.333 90.734,64.333 90.982 C 64.333 91.183,64.226 91.333,64.083 91.333 C 63.946 91.333,63.833 91.446,63.833 91.583 C 63.833 91.721,63.721 91.833,63.583 91.833 C 63.446 91.833,63.333 91.946,63.333 92.083 C 63.333 92.221,63.221 92.333,63.083 92.333 C 62.946 92.333,62.833 92.438,62.833 92.566 C 62.833 92.693,62.721 92.841,62.583 92.894 C 62.446 92.946,62.333 93.179,62.333 93.411 C 62.333 93.675,62.240 93.833,62.083 93.833 C 61.946 93.833,61.833 93.946,61.833 94.083 C 61.833 94.221,61.721 94.333,61.583 94.333 C 61.446 94.333,61.333 94.446,61.333 94.583 C 61.333 94.721,61.221 94.833,61.083 94.833 C 60.917 94.833,60.833 95.000,60.833 95.333 C 60.833 95.667,60.750 95.833,60.583 95.833 C 60.446 95.833,60.333 95.938,60.333 96.066 C 60.333 96.193,60.221 96.341,60.083 96.394 C 59.946 96.446,59.833 96.679,59.833 96.911 C 59.833 97.175,59.740 97.333,59.583 97.333 C 59.417 97.333,59.333 97.500,59.333 97.833 C 59.333 98.167,59.250 98.333,59.083 98.333 C 58.946 98.333,58.833 98.437,58.833 98.563 C 58.833 98.689,58.721 98.886,58.583 99.000 C 58.446 99.114,58.333 99.340,58.333 99.503 C 58.333 99.665,58.221 99.841,58.083 99.894 C 57.946 99.946,57.833 100.179,57.833 100.411 C 57.833 100.675,57.740 100.833,57.583 100.833 C 57.417 100.833,57.333 101.000,57.333 101.333 C 57.333 101.667,57.250 101.833,57.083 101.833 C 56.855 101.833,56.732 102.436,56.820 103.122 C 56.836 103.243,56.741 103.287,56.590 103.230 C 56.388 103.152,56.333 103.259,56.333 103.732 C 56.333 104.145,56.258 104.333,56.092 104.333 C 55.923 104.333,55.836 104.569,55.801 105.125 C 55.770 105.603,55.675 105.903,55.560 105.881 C 55.429 105.857,55.363 106.431,55.344 107.756 C 55.322 109.380,55.356 109.667,55.576 109.667 C 55.751 109.667,55.833 109.827,55.833 110.167 C 55.833 110.483,55.919 110.667,56.066 110.667 C 56.193 110.667,56.341 110.779,56.394 110.917 C 56.446 111.054,56.679 111.167,56.911 111.167 C 57.175 111.167,57.333 111.260,57.333 111.417 C 57.333 111.554,57.446 111.667,57.583 111.667 C 57.721 111.667,57.833 111.779,57.833 111.917 C 57.833 112.122,58.130 112.167,59.505 112.167 C 60.838 112.167,61.197 112.116,61.273 111.917 C 61.326 111.779,61.473 111.667,61.601 111.667 C 61.729 111.667,61.833 111.554,61.833 111.417 C 61.833 111.279,61.908 111.167,62.000 111.167 C 62.092 111.167,62.167 111.054,62.167 110.917 C 62.167 110.778,62.315 110.667,62.500 110.667 C 62.685 110.667,62.833 110.556,62.833 110.417 C 62.833 110.279,62.975 110.167,63.149 110.167 C 63.322 110.167,63.508 110.054,63.560 109.917 C 63.613 109.779,63.767 109.667,63.903 109.667 C 64.039 109.667,64.210 109.567,64.283 109.446 C 64.357 109.324,64.942 108.818,65.583 108.321 C 71.471 103.757,75.284 98.660,77.256 92.716 C 79.150 87.008,78.773 79.663,76.315 74.382 C 76.050 73.813,75.833 73.277,75.833 73.191 C 75.833 73.106,75.721 72.992,75.583 72.940 C 75.446 72.887,75.333 72.691,75.333 72.505 C 75.333 72.319,75.226 72.167,75.094 72.167 C 74.949 72.167,74.834 71.965,74.802 71.656 C 74.760 71.247,74.709 71.187,74.542 71.356 " stroke="none" fill="#c9f4ff" fill-rule="evenodd"></path></g></svg>